# metres, +Y up; written by check.gd from seated_woman_asset.gd
o body
v 0.31000 0.10000 0.64000
v 0.31000 0.76000 0.00000
v 0.31000 0.10000 0.00000
v 0.31000 0.10000 0.64000
v 0.31000 0.76000 0.64000
v 0.31000 0.76000 0.00000
v 0.31000 0.10000 0.00000
v -0.31000 0.76000 0.00000
v -0.31000 0.10000 0.00000
v 0.31000 0.10000 0.00000
v 0.31000 0.76000 0.00000
v -0.31000 0.76000 0.00000
v -0.31000 0.10000 0.00000
v -0.31000 0.76000 0.64000
v -0.31000 0.10000 0.64000
v -0.31000 0.10000 0.00000
v -0.31000 0.76000 0.00000
v -0.31000 0.76000 0.64000
v -0.31000 0.10000 0.64000
v 0.31000 0.76000 0.64000
v 0.31000 0.10000 0.64000
v -0.31000 0.10000 0.64000
v -0.31000 0.76000 0.64000
v 0.31000 0.76000 0.64000
v 0.31000 0.10000 0.64000
v 0.31000 0.10000 0.00000
v -0.31000 0.10000 0.00000
v 0.31000 0.76000 0.64000
v -0.31000 0.76000 0.00000
v 0.31000 0.76000 0.00000
v 0.31000 0.10000 0.64000
v -0.31000 0.10000 0.00000
v -0.31000 0.10000 0.64000
v 0.31000 0.76000 0.64000
v -0.31000 0.76000 0.64000
v -0.31000 0.76000 0.00000
f 1 2 3
f 4 5 6
f 7 8 9
f 10 11 12
f 13 14 15
f 16 17 18
f 19 20 21
f 22 23 24
f 25 26 27
f 28 29 30
f 31 32 33
f 34 35 36
o trim
v 0.33000 0.00000 0.66000
v 0.33000 0.10000 0.00000
v 0.33000 0.00000 0.00000
v 0.33000 0.00000 0.66000
v 0.33000 0.10000 0.66000
v 0.33000 0.10000 0.00000
v 0.33000 0.00000 0.00000
v -0.33000 0.10000 0.00000
v -0.33000 0.00000 0.00000
v 0.33000 0.00000 0.00000
v 0.33000 0.10000 0.00000
v -0.33000 0.10000 0.00000
v -0.33000 0.00000 0.00000
v -0.33000 0.10000 0.66000
v -0.33000 0.00000 0.66000
v -0.33000 0.00000 0.00000
v -0.33000 0.10000 0.00000
v -0.33000 0.10000 0.66000
v -0.33000 0.00000 0.66000
v 0.33000 0.10000 0.66000
v 0.33000 0.00000 0.66000
v -0.33000 0.00000 0.66000
v -0.33000 0.10000 0.66000
v 0.33000 0.10000 0.66000
v 0.33000 0.00000 0.66000
v 0.33000 0.00000 0.00000
v -0.33000 0.00000 0.00000
v 0.33000 0.10000 0.66000
v -0.33000 0.10000 0.00000
v 0.33000 0.10000 0.00000
v 0.33000 0.00000 0.66000
v -0.33000 0.00000 0.00000
v -0.33000 0.00000 0.66000
v 0.33000 0.10000 0.66000
v -0.33000 0.10000 0.66000
v -0.33000 0.10000 0.00000
f 37 38 39
f 40 41 42
f 43 44 45
f 46 47 48
f 49 50 51
f 52 53 54
f 55 56 57
f 58 59 60
f 61 62 63
f 64 65 66
f 67 68 69
f 70 71 72
v 0.34000 0.76000 0.67000
v 0.34000 0.83000 0.00000
v 0.34000 0.76000 0.00000
v 0.34000 0.76000 0.67000
v 0.34000 0.83000 0.67000
v 0.34000 0.83000 0.00000
v 0.34000 0.76000 0.00000
v -0.34000 0.83000 0.00000
v -0.34000 0.76000 0.00000
v 0.34000 0.76000 0.00000
v 0.34000 0.83000 0.00000
v -0.34000 0.83000 0.00000
v -0.34000 0.76000 0.00000
v -0.34000 0.83000 0.67000
v -0.34000 0.76000 0.67000
v -0.34000 0.76000 0.00000
v -0.34000 0.83000 0.00000
v -0.34000 0.83000 0.67000
v -0.34000 0.76000 0.67000
v 0.34000 0.83000 0.67000
v 0.34000 0.76000 0.67000
v -0.34000 0.76000 0.67000
v -0.34000 0.83000 0.67000
v 0.34000 0.83000 0.67000
v 0.34000 0.76000 0.67000
v 0.34000 0.76000 0.00000
v -0.34000 0.76000 0.00000
v 0.34000 0.83000 0.67000
v -0.34000 0.83000 0.00000
v 0.34000 0.83000 0.00000
v 0.34000 0.76000 0.67000
v -0.34000 0.76000 0.00000
v -0.34000 0.76000 0.67000
v 0.34000 0.83000 0.67000
v -0.34000 0.83000 0.67000
v -0.34000 0.83000 0.00000
f 73 74 75
f 76 77 78
f 79 80 81
f 82 83 84
f 85 86 87
f 88 89 90
f 91 92 93
f 94 95 96
f 97 98 99
f 100 101 102
f 103 104 105
f 106 107 108
v 0.29000 0.83000 0.62000
v 0.20000 0.92000 0.11000
v 0.29000 0.83000 0.02000
v 0.29000 0.83000 0.62000
v 0.20000 0.92000 0.53000
v 0.20000 0.92000 0.11000
v 0.29000 0.83000 0.02000
v -0.20000 0.92000 0.11000
v -0.29000 0.83000 0.02000
v 0.29000 0.83000 0.02000
v 0.20000 0.92000 0.11000
v -0.20000 0.92000 0.11000
v -0.29000 0.83000 0.02000
v -0.20000 0.92000 0.53000
v -0.29000 0.83000 0.62000
v -0.29000 0.83000 0.02000
v -0.20000 0.92000 0.11000
v -0.20000 0.92000 0.53000
v -0.29000 0.83000 0.62000
v 0.20000 0.92000 0.53000
v 0.29000 0.83000 0.62000
v -0.29000 0.83000 0.62000
v -0.20000 0.92000 0.53000
v 0.20000 0.92000 0.53000
v 0.29000 0.83000 0.62000
v 0.29000 0.83000 0.02000
v -0.29000 0.83000 0.02000
v 0.20000 0.92000 0.53000
v -0.20000 0.92000 0.11000
v 0.20000 0.92000 0.11000
v 0.29000 0.83000 0.62000
v -0.29000 0.83000 0.02000
v -0.29000 0.83000 0.62000
v 0.20000 0.92000 0.53000
v -0.20000 0.92000 0.53000
v -0.20000 0.92000 0.11000
f 109 110 111
f 112 113 114
f 115 116 117
f 118 119 120
f 121 122 123
f 124 125 126
f 127 128 129
f 130 131 132
f 133 134 135
f 136 137 138
f 139 140 141
f 142 143 144
o glass
v -0.29800 0.83000 0.64000
v -0.29800 1.70000 0.00000
v -0.29800 0.83000 0.00000
v -0.29800 0.83000 0.64000
v -0.29800 1.70000 0.64000
v -0.29800 1.70000 0.00000
v -0.29800 0.83000 0.00000
v -0.31000 1.70000 0.00000
v -0.31000 0.83000 0.00000
v -0.29800 0.83000 0.00000
v -0.29800 1.70000 0.00000
v -0.31000 1.70000 0.00000
v -0.31000 0.83000 0.00000
v -0.31000 1.70000 0.64000
v -0.31000 0.83000 0.64000
v -0.31000 0.83000 0.00000
v -0.31000 1.70000 0.00000
v -0.31000 1.70000 0.64000
v -0.31000 0.83000 0.64000
v -0.29800 1.70000 0.64000
v -0.29800 0.83000 0.64000
v -0.31000 0.83000 0.64000
v -0.31000 1.70000 0.64000
v -0.29800 1.70000 0.64000
v -0.29800 0.83000 0.64000
v -0.29800 0.83000 0.00000
v -0.31000 0.83000 0.00000
v -0.29800 1.70000 0.64000
v -0.31000 1.70000 0.00000
v -0.29800 1.70000 0.00000
v -0.29800 0.83000 0.64000
v -0.31000 0.83000 0.00000
v -0.31000 0.83000 0.64000
v -0.29800 1.70000 0.64000
v -0.31000 1.70000 0.64000
v -0.31000 1.70000 0.00000
f 145 146 147
f 148 149 150
f 151 152 153
f 154 155 156
f 157 158 159
f 160 161 162
f 163 164 165
f 166 167 168
f 169 170 171
f 172 173 174
f 175 176 177
f 178 179 180
v 0.31000 0.83000 0.64000
v 0.31000 1.70000 0.00000
v 0.31000 0.83000 0.00000
v 0.31000 0.83000 0.64000
v 0.31000 1.70000 0.64000
v 0.31000 1.70000 0.00000
v 0.31000 0.83000 0.00000
v 0.29800 1.70000 0.00000
v 0.29800 0.83000 0.00000
v 0.31000 0.83000 0.00000
v 0.31000 1.70000 0.00000
v 0.29800 1.70000 0.00000
v 0.29800 0.83000 0.00000
v 0.29800 1.70000 0.64000
v 0.29800 0.83000 0.64000
v 0.29800 0.83000 0.00000
v 0.29800 1.70000 0.00000
v 0.29800 1.70000 0.64000
v 0.29800 0.83000 0.64000
v 0.31000 1.70000 0.64000
v 0.31000 0.83000 0.64000
v 0.29800 0.83000 0.64000
v 0.29800 1.70000 0.64000
v 0.31000 1.70000 0.64000
v 0.31000 0.83000 0.64000
v 0.31000 0.83000 0.00000
v 0.29800 0.83000 0.00000
v 0.31000 1.70000 0.64000
v 0.29800 1.70000 0.00000
v 0.31000 1.70000 0.00000
v 0.31000 0.83000 0.64000
v 0.29800 0.83000 0.00000
v 0.29800 0.83000 0.64000
v 0.31000 1.70000 0.64000
v 0.29800 1.70000 0.64000
v 0.29800 1.70000 0.00000
f 181 182 183
f 184 185 186
f 187 188 189
f 190 191 192
f 193 194 195
f 196 197 198
f 199 200 201
f 202 203 204
f 205 206 207
f 208 209 210
f 211 212 213
f 214 215 216
v 0.29800 0.83000 0.01200
v 0.29800 1.70000 0.00000
v 0.29800 0.83000 0.00000
v 0.29800 0.83000 0.01200
v 0.29800 1.70000 0.01200
v 0.29800 1.70000 0.00000
v 0.29800 0.83000 0.00000
v -0.29800 1.70000 0.00000
v -0.29800 0.83000 0.00000
v 0.29800 0.83000 0.00000
v 0.29800 1.70000 0.00000
v -0.29800 1.70000 0.00000
v -0.29800 0.83000 0.00000
v -0.29800 1.70000 0.01200
v -0.29800 0.83000 0.01200
v -0.29800 0.83000 0.00000
v -0.29800 1.70000 0.00000
v -0.29800 1.70000 0.01200
v -0.29800 0.83000 0.01200
v 0.29800 1.70000 0.01200
v 0.29800 0.83000 0.01200
v -0.29800 0.83000 0.01200
v -0.29800 1.70000 0.01200
v 0.29800 1.70000 0.01200
v 0.29800 0.83000 0.01200
v 0.29800 0.83000 0.00000
v -0.29800 0.83000 0.00000
v 0.29800 1.70000 0.01200
v -0.29800 1.70000 0.00000
v 0.29800 1.70000 0.00000
v 0.29800 0.83000 0.01200
v -0.29800 0.83000 0.00000
v -0.29800 0.83000 0.01200
v 0.29800 1.70000 0.01200
v -0.29800 1.70000 0.01200
v -0.29800 1.70000 0.00000
f 217 218 219
f 220 221 222
f 223 224 225
f 226 227 228
f 229 230 231
f 232 233 234
f 235 236 237
f 238 239 240
f 241 242 243
f 244 245 246
f 247 248 249
f 250 251 252
v 0.29800 0.83000 0.64000
v 0.29800 1.70000 0.62800
v 0.29800 0.83000 0.62800
v 0.29800 0.83000 0.64000
v 0.29800 1.70000 0.64000
v 0.29800 1.70000 0.62800
v 0.29800 0.83000 0.62800
v -0.29800 1.70000 0.62800
v -0.29800 0.83000 0.62800
v 0.29800 0.83000 0.62800
v 0.29800 1.70000 0.62800
v -0.29800 1.70000 0.62800
v -0.29800 0.83000 0.62800
v -0.29800 1.70000 0.64000
v -0.29800 0.83000 0.64000
v -0.29800 0.83000 0.62800
v -0.29800 1.70000 0.62800
v -0.29800 1.70000 0.64000
v -0.29800 0.83000 0.64000
v 0.29800 1.70000 0.64000
v 0.29800 0.83000 0.64000
v -0.29800 0.83000 0.64000
v -0.29800 1.70000 0.64000
v 0.29800 1.70000 0.64000
v 0.29800 0.83000 0.64000
v 0.29800 0.83000 0.62800
v -0.29800 0.83000 0.62800
v 0.29800 1.70000 0.64000
v -0.29800 1.70000 0.62800
v 0.29800 1.70000 0.62800
v 0.29800 0.83000 0.64000
v -0.29800 0.83000 0.62800
v -0.29800 0.83000 0.64000
v 0.29800 1.70000 0.64000
v -0.29800 1.70000 0.64000
v -0.29800 1.70000 0.62800
f 253 254 255
f 256 257 258
f 259 260 261
f 262 263 264
f 265 266 267
f 268 269 270
f 271 272 273
f 274 275 276
f 277 278 279
f 280 281 282
f 283 284 285
f 286 287 288
v 0.29800 1.68800 0.62800
v 0.29800 1.70000 0.01200
v 0.29800 1.68800 0.01200
v 0.29800 1.68800 0.62800
v 0.29800 1.70000 0.62800
v 0.29800 1.70000 0.01200
v 0.29800 1.68800 0.01200
v -0.29800 1.70000 0.01200
v -0.29800 1.68800 0.01200
v 0.29800 1.68800 0.01200
v 0.29800 1.70000 0.01200
v -0.29800 1.70000 0.01200
v -0.29800 1.68800 0.01200
v -0.29800 1.70000 0.62800
v -0.29800 1.68800 0.62800
v -0.29800 1.68800 0.01200
v -0.29800 1.70000 0.01200
v -0.29800 1.70000 0.62800
v -0.29800 1.68800 0.62800
v 0.29800 1.70000 0.62800
v 0.29800 1.68800 0.62800
v -0.29800 1.68800 0.62800
v -0.29800 1.70000 0.62800
v 0.29800 1.70000 0.62800
v 0.29800 1.68800 0.62800
v 0.29800 1.68800 0.01200
v -0.29800 1.68800 0.01200
v 0.29800 1.70000 0.62800
v -0.29800 1.70000 0.01200
v 0.29800 1.70000 0.01200
v 0.29800 1.68800 0.62800
v -0.29800 1.68800 0.01200
v -0.29800 1.68800 0.62800
v 0.29800 1.70000 0.62800
v -0.29800 1.70000 0.62800
v -0.29800 1.70000 0.01200
f 289 290 291
f 292 293 294
f 295 296 297
f 298 299 300
f 301 302 303
f 304 305 306
f 307 308 309
f 310 311 312
f 313 314 315
f 316 317 318
f 319 320 321
f 322 323 324
o seated_woman_67_089
v 0.10150 0.92000 0.44050
v 0.10150 0.98000 0.19950
v 0.10150 0.92000 0.19950
v 0.10150 0.92000 0.44050
v 0.10150 0.98000 0.44050
v 0.10150 0.98000 0.19950
v 0.10150 0.92000 0.19950
v -0.10150 0.98000 0.19950
v -0.10150 0.92000 0.19950
v 0.10150 0.92000 0.19950
v 0.10150 0.98000 0.19950
v -0.10150 0.98000 0.19950
v -0.10150 0.92000 0.19950
v -0.10150 0.98000 0.44050
v -0.10150 0.92000 0.44050
v -0.10150 0.92000 0.19950
v -0.10150 0.98000 0.19950
v -0.10150 0.98000 0.44050
v -0.10150 0.92000 0.44050
v 0.10150 0.98000 0.44050
v 0.10150 0.92000 0.44050
v -0.10150 0.92000 0.44050
v -0.10150 0.98000 0.44050
v 0.10150 0.98000 0.44050
v 0.10150 0.92000 0.44050
v 0.10150 0.92000 0.19950
v -0.10150 0.92000 0.19950
v 0.10150 0.98000 0.44050
v -0.10150 0.98000 0.19950
v 0.10150 0.98000 0.19950
v 0.10150 0.92000 0.44050
v -0.10150 0.92000 0.19950
v -0.10150 0.92000 0.44050
v 0.10150 0.98000 0.44050
v -0.10150 0.98000 0.44050
v -0.10150 0.98000 0.19950
f 325 326 327
f 328 329 330
f 331 332 333
f 334 335 336
f 337 338 339
f 340 341 342
f 343 344 345
f 346 347 348
f 349 350 351
f 352 353 354
f 355 356 357
f 358 359 360
v 0.07200 0.98000 0.40500
v 0.07200 0.98900 0.23500
v 0.07200 0.98000 0.23500
v 0.07200 0.98000 0.40500
v 0.07200 0.98900 0.40500
v 0.07200 0.98900 0.23500
v 0.07200 0.98000 0.23500
v -0.07200 0.98900 0.23500
v -0.07200 0.98000 0.23500
v 0.07200 0.98000 0.23500
v 0.07200 0.98900 0.23500
v -0.07200 0.98900 0.23500
v -0.07200 0.98000 0.23500
v -0.07200 0.98900 0.40500
v -0.07200 0.98000 0.40500
v -0.07200 0.98000 0.23500
v -0.07200 0.98900 0.23500
v -0.07200 0.98900 0.40500
v -0.07200 0.98000 0.40500
v 0.07200 0.98900 0.40500
v 0.07200 0.98000 0.40500
v -0.07200 0.98000 0.40500
v -0.07200 0.98900 0.40500
v 0.07200 0.98900 0.40500
v 0.07200 0.98000 0.40500
v 0.07200 0.98000 0.23500
v -0.07200 0.98000 0.23500
v 0.07200 0.98900 0.40500
v -0.07200 0.98900 0.23500
v 0.07200 0.98900 0.23500
v 0.07200 0.98000 0.40500
v -0.07200 0.98000 0.23500
v -0.07200 0.98000 0.40500
v 0.07200 0.98900 0.40500
v -0.07200 0.98900 0.40500
v -0.07200 0.98900 0.23500
f 361 362 363
f 364 365 366
f 367 368 369
f 370 371 372
f 373 374 375
f 376 377 378
f 379 380 381
f 382 383 384
f 385 386 387
f 388 389 390
f 391 392 393
f 394 395 396
v 0.01700 0.98900 0.31500
v 0.01700 1.24000 0.22500
v 0.01700 0.98900 0.22500
v 0.01700 0.98900 0.31500
v 0.01700 1.24000 0.31500
v 0.01700 1.24000 0.22500
v 0.01700 0.98900 0.22500
v -0.06300 1.24000 0.22500
v -0.06300 0.98900 0.22500
v 0.01700 0.98900 0.22500
v 0.01700 1.24000 0.22500
v -0.06300 1.24000 0.22500
v -0.06300 0.98900 0.22500
v -0.06300 1.24000 0.31500
v -0.06300 0.98900 0.31500
v -0.06300 0.98900 0.22500
v -0.06300 1.24000 0.22500
v -0.06300 1.24000 0.31500
v -0.06300 0.98900 0.31500
v 0.01700 1.24000 0.31500
v 0.01700 0.98900 0.31500
v -0.06300 0.98900 0.31500
v -0.06300 1.24000 0.31500
v 0.01700 1.24000 0.31500
v 0.01700 0.98900 0.31500
v 0.01700 0.98900 0.22500
v -0.06300 0.98900 0.22500
v 0.01700 1.24000 0.31500
v -0.06300 1.24000 0.22500
v 0.01700 1.24000 0.22500
v 0.01700 0.98900 0.31500
v -0.06300 0.98900 0.22500
v -0.06300 0.98900 0.31500
v 0.01700 1.24000 0.31500
v -0.06300 1.24000 0.31500
v -0.06300 1.24000 0.22500
f 397 398 399
f 400 401 402
f 403 404 405
f 406 407 408
f 409 410 411
f 412 413 414
f 415 416 417
f 418 419 420
f 421 422 423
f 424 425 426
f 427 428 429
f 430 431 432
v 0.04330 1.23324 0.23773
v 0.00000 1.28864 0.20262
v 0.00000 1.23648 0.21547
v 0.04330 1.23324 0.23773
v 0.05456 1.28432 0.23231
v 0.00000 1.28864 0.20262
v 0.00000 1.23648 0.21547
v -0.05456 1.28432 0.23231
v -0.04330 1.23324 0.23773
v 0.00000 1.23648 0.21547
v 0.00000 1.28864 0.20262
v -0.05456 1.28432 0.23231
v -0.04330 1.23324 0.23773
v -0.05456 1.27568 0.29169
v -0.04330 1.22676 0.28227
v -0.04330 1.23324 0.23773
v -0.05456 1.28432 0.23231
v -0.05456 1.27568 0.29169
v -0.04330 1.22676 0.28227
v -0.00000 1.27136 0.32138
v -0.00000 1.22352 0.30453
v -0.04330 1.22676 0.28227
v -0.05456 1.27568 0.29169
v -0.00000 1.27136 0.32138
v -0.00000 1.22352 0.30453
v 0.05456 1.27568 0.29169
v 0.04330 1.22676 0.28227
v -0.00000 1.22352 0.30453
v -0.00000 1.27136 0.32138
v 0.05456 1.27568 0.29169
v 0.04330 1.22676 0.28227
v 0.05456 1.28432 0.23231
v 0.04330 1.23324 0.23773
v 0.04330 1.22676 0.28227
v 0.05456 1.27568 0.29169
v 0.05456 1.28432 0.23231
v 0.05456 1.28432 0.23231
v 0.00000 1.35633 0.23146
v 0.00000 1.28864 0.20262
v 0.05456 1.28432 0.23231
v 0.04503 1.35317 0.25323
v 0.00000 1.35633 0.23146
v 0.00000 1.28864 0.20262
v -0.04503 1.35317 0.25323
v -0.05456 1.28432 0.23231
v 0.00000 1.28864 0.20262
v 0.00000 1.35633 0.23146
v -0.04503 1.35317 0.25323
v -0.05456 1.28432 0.23231
v -0.04503 1.34683 0.29677
v -0.05456 1.27568 0.29169
v -0.05456 1.28432 0.23231
v -0.04503 1.35317 0.25323
v -0.04503 1.34683 0.29677
v -0.05456 1.27568 0.29169
v -0.00000 1.34367 0.31854
v -0.00000 1.27136 0.32138
v -0.05456 1.27568 0.29169
v -0.04503 1.34683 0.29677
v -0.00000 1.34367 0.31854
v -0.00000 1.27136 0.32138
v 0.04503 1.34683 0.29677
v 0.05456 1.27568 0.29169
v -0.00000 1.27136 0.32138
v -0.00000 1.34367 0.31854
v 0.04503 1.34683 0.29677
v 0.05456 1.27568 0.29169
v 0.04503 1.35317 0.25323
v 0.05456 1.28432 0.23231
v 0.05456 1.27568 0.29169
v 0.04503 1.34683 0.29677
v 0.04503 1.35317 0.25323
v 0.04503 1.35317 0.25323
v 0.00000 1.43691 0.24050
v 0.00000 1.35633 0.23146
v 0.04503 1.35317 0.25323
v 0.06409 1.43345 0.26425
v 0.00000 1.43691 0.24050
v 0.00000 1.35633 0.23146
v -0.06409 1.43345 0.26425
v -0.04503 1.35317 0.25323
v 0.00000 1.35633 0.23146
v 0.00000 1.43691 0.24050
v -0.06409 1.43345 0.26425
v -0.04503 1.35317 0.25323
v -0.06409 1.42655 0.31175
v -0.04503 1.34683 0.29677
v -0.04503 1.35317 0.25323
v -0.06409 1.43345 0.26425
v -0.06409 1.42655 0.31175
v -0.04503 1.34683 0.29677
v -0.00000 1.42309 0.33550
v -0.00000 1.34367 0.31854
v -0.04503 1.34683 0.29677
v -0.06409 1.42655 0.31175
v -0.00000 1.42309 0.33550
v -0.00000 1.34367 0.31854
v 0.06409 1.42655 0.31175
v 0.04503 1.34683 0.29677
v -0.00000 1.34367 0.31854
v -0.00000 1.42309 0.33550
v 0.06409 1.42655 0.31175
v 0.04503 1.34683 0.29677
v 0.06409 1.43345 0.26425
v 0.04503 1.35317 0.25323
v 0.04503 1.34683 0.29677
v 0.06409 1.42655 0.31175
v 0.06409 1.43345 0.26425
v 0.06409 1.43345 0.26425
v 0.00000 1.51105 0.25844
v 0.00000 1.43691 0.24050
v 0.06409 1.43345 0.26425
v 0.07448 1.50802 0.27922
v 0.00000 1.51105 0.25844
v 0.00000 1.43691 0.24050
v -0.07448 1.50802 0.27922
v -0.06409 1.43345 0.26425
v 0.00000 1.43691 0.24050
v 0.00000 1.51105 0.25844
v -0.07448 1.50802 0.27922
v -0.06409 1.43345 0.26425
v -0.07448 1.50198 0.32078
v -0.06409 1.42655 0.31175
v -0.06409 1.43345 0.26425
v -0.07448 1.50802 0.27922
v -0.07448 1.50198 0.32078
v -0.06409 1.42655 0.31175
v -0.00000 1.49895 0.34156
v -0.00000 1.42309 0.33550
v -0.06409 1.42655 0.31175
v -0.07448 1.50198 0.32078
v -0.00000 1.49895 0.34156
v -0.00000 1.42309 0.33550
v 0.07448 1.50198 0.32078
v 0.06409 1.42655 0.31175
v -0.00000 1.42309 0.33550
v -0.00000 1.49895 0.34156
v 0.07448 1.50198 0.32078
v 0.06409 1.42655 0.31175
v 0.07448 1.50802 0.27922
v 0.06409 1.43345 0.26425
v 0.06409 1.42655 0.31175
v 0.07448 1.50198 0.32078
v 0.07448 1.50802 0.27922
v 0.04330 1.23324 0.23773
v 0.00000 1.23648 0.21547
v -0.04330 1.23324 0.23773
v 0.07448 1.50802 0.27922
v -0.07448 1.50802 0.27922
v 0.00000 1.51105 0.25844
v 0.04330 1.23324 0.23773
v -0.04330 1.23324 0.23773
v -0.04330 1.22676 0.28227
v 0.07448 1.50802 0.27922
v -0.07448 1.50198 0.32078
v -0.07448 1.50802 0.27922
v 0.04330 1.23324 0.23773
v -0.04330 1.22676 0.28227
v -0.00000 1.22352 0.30453
v 0.07448 1.50802 0.27922
v -0.00000 1.49895 0.34156
v -0.07448 1.50198 0.32078
v 0.04330 1.23324 0.23773
v -0.00000 1.22352 0.30453
v 0.04330 1.22676 0.28227
v 0.07448 1.50802 0.27922
v 0.07448 1.50198 0.32078
v -0.00000 1.49895 0.34156
f 433 434 435
f 436 437 438
f 439 440 441
f 442 443 444
f 445 446 447
f 448 449 450
f 451 452 453
f 454 455 456
f 457 458 459
f 460 461 462
f 463 464 465
f 466 467 468
f 469 470 471
f 472 473 474
f 475 476 477
f 478 479 480
f 481 482 483
f 484 485 486
f 487 488 489
f 490 491 492
f 493 494 495
f 496 497 498
f 499 500 501
f 502 503 504
f 505 506 507
f 508 509 510
f 511 512 513
f 514 515 516
f 517 518 519
f 520 521 522
f 523 524 525
f 526 527 528
f 529 530 531
f 532 533 534
f 535 536 537
f 538 539 540
f 541 542 543
f 544 545 546
f 547 548 549
f 550 551 552
f 553 554 555
f 556 557 558
f 559 560 561
f 562 563 564
f 565 566 567
f 568 569 570
f 571 572 573
f 574 575 576
f 577 578 579
f 580 581 582
f 583 584 585
f 586 587 588
f 589 590 591
f 592 593 594
f 595 596 597
f 598 599 600
v 0.10148 1.50505 0.32061
v 0.05521 1.38093 0.35390
v 0.05652 1.50639 0.32024
v 0.10148 1.50505 0.32061
v 0.09479 1.37975 0.35423
v 0.05521 1.38093 0.35390
v 0.05652 1.50639 0.32024
v 0.05521 1.37025 0.31577
v 0.05652 1.49495 0.27939
v 0.05652 1.50639 0.32024
v 0.05521 1.38093 0.35390
v 0.05521 1.37025 0.31577
v 0.05652 1.49495 0.27939
v 0.09479 1.36907 0.31610
v 0.10148 1.49361 0.27976
v 0.05652 1.49495 0.27939
v 0.05521 1.37025 0.31577
v 0.09479 1.36907 0.31610
v 0.10148 1.49361 0.27976
v 0.09479 1.37975 0.35423
v 0.10148 1.50505 0.32061
v 0.10148 1.49361 0.27976
v 0.09479 1.36907 0.31610
v 0.09479 1.37975 0.35423
v 0.10148 1.50505 0.32061
v 0.05652 1.50639 0.32024
v 0.05652 1.49495 0.27939
v 0.09479 1.37975 0.35423
v 0.05521 1.37025 0.31577
v 0.05521 1.38093 0.35390
v 0.10148 1.50505 0.32061
v 0.05652 1.49495 0.27939
v 0.10148 1.49361 0.27976
v 0.09479 1.37975 0.35423
v 0.09479 1.36907 0.31610
v 0.05521 1.37025 0.31577
f 601 602 603
f 604 605 606
f 607 608 609
f 610 611 612
f 613 614 615
f 616 617 618
f 619 620 621
f 622 623 624
f 625 626 627
f 628 629 630
f 631 632 633
f 634 635 636
v 0.08119 1.39461 0.36649
v -0.05657 1.48809 0.33433
v 0.07997 1.39546 0.32551
v 0.08119 1.39461 0.36649
v -0.05552 1.48735 0.36967
v -0.05657 1.48809 0.33433
v 0.07997 1.39546 0.32551
v -0.07448 1.46265 0.33433
v 0.05881 1.36539 0.32551
v 0.07997 1.39546 0.32551
v -0.05657 1.48809 0.33433
v -0.07448 1.46265 0.33433
v 0.05881 1.36539 0.32551
v -0.07343 1.46191 0.36967
v 0.06003 1.36454 0.36649
v 0.05881 1.36539 0.32551
v -0.07448 1.46265 0.33433
v -0.07343 1.46191 0.36967
v 0.06003 1.36454 0.36649
v -0.05552 1.48735 0.36967
v 0.08119 1.39461 0.36649
v 0.06003 1.36454 0.36649
v -0.07343 1.46191 0.36967
v -0.05552 1.48735 0.36967
v 0.08119 1.39461 0.36649
v 0.07997 1.39546 0.32551
v 0.05881 1.36539 0.32551
v -0.05552 1.48735 0.36967
v -0.07448 1.46265 0.33433
v -0.05657 1.48809 0.33433
v 0.08119 1.39461 0.36649
v 0.05881 1.36539 0.32551
v 0.06003 1.36454 0.36649
v -0.05552 1.48735 0.36967
v -0.07343 1.46191 0.36967
v -0.07448 1.46265 0.33433
f 637 638 639
f 640 641 642
f 643 644 645
f 646 647 648
f 649 650 651
f 652 653 654
f 655 656 657
f 658 659 660
f 661 662 663
f 664 665 666
f 667 668 669
f 670 671 672
v -0.06462 1.49721 0.32325
v -0.10147 1.34169 0.33831
v -0.10138 1.49666 0.32331
v -0.06462 1.49721 0.32325
v -0.06853 1.34219 0.33826
v -0.10147 1.34169 0.33831
v -0.10138 1.49666 0.32331
v -0.10147 1.33781 0.30174
v -0.10138 1.49279 0.28675
v -0.10138 1.49666 0.32331
v -0.10147 1.34169 0.33831
v -0.10147 1.33781 0.30174
v -0.10138 1.49279 0.28675
v -0.06853 1.33831 0.30169
v -0.06462 1.49334 0.28669
v -0.10138 1.49279 0.28675
v -0.10147 1.33781 0.30174
v -0.06853 1.33831 0.30169
v -0.06462 1.49334 0.28669
v -0.06853 1.34219 0.33826
v -0.06462 1.49721 0.32325
v -0.06462 1.49334 0.28669
v -0.06853 1.33831 0.30169
v -0.06853 1.34219 0.33826
v -0.06853 1.34219 0.33826
v -0.09214 1.16643 0.35549
v -0.10147 1.34169 0.33831
v -0.06853 1.34219 0.33826
v -0.06386 1.16685 0.35545
v -0.09214 1.16643 0.35549
v -0.10147 1.34169 0.33831
v -0.09214 1.16315 0.32455
v -0.10147 1.33781 0.30174
v -0.10147 1.34169 0.33831
v -0.09214 1.16643 0.35549
v -0.09214 1.16315 0.32455
v -0.10147 1.33781 0.30174
v -0.06386 1.16357 0.32451
v -0.06853 1.33831 0.30169
v -0.10147 1.33781 0.30174
v -0.09214 1.16315 0.32455
v -0.06386 1.16357 0.32451
v -0.06853 1.33831 0.30169
v -0.06386 1.16685 0.35545
v -0.06853 1.34219 0.33826
v -0.06853 1.33831 0.30169
v -0.06386 1.16357 0.32451
v -0.06386 1.16685 0.35545
v -0.06462 1.49721 0.32325
v -0.10138 1.49666 0.32331
v -0.10138 1.49279 0.28675
v -0.06386 1.16685 0.35545
v -0.09214 1.16315 0.32455
v -0.09214 1.16643 0.35549
v -0.06462 1.49721 0.32325
v -0.10138 1.49279 0.28675
v -0.06462 1.49334 0.28669
v -0.06386 1.16685 0.35545
v -0.06386 1.16357 0.32451
v -0.09214 1.16315 0.32455
f 673 674 675
f 676 677 678
f 679 680 681
f 682 683 684
f 685 686 687
f 688 689 690
f 691 692 693
f 694 695 696
f 697 698 699
f 700 701 702
f 703 704 705
f 706 707 708
f 709 710 711
f 712 713 714
f 715 716 717
f 718 719 720
f 721 722 723
f 724 725 726
f 727 728 729
f 730 731 732
v 0.02453 1.31490 0.24673
v 0.02500 1.37147 0.33773
v -0.01500 1.34347 0.25773
v 0.02453 1.31490 0.24673
v 0.06453 1.34290 0.32673
v 0.02500 1.37147 0.33773
v -0.01500 1.34347 0.25773
v -0.01453 1.35157 0.36099
v -0.05453 1.32357 0.28099
v -0.01500 1.34347 0.25773
v 0.02500 1.37147 0.33773
v -0.01453 1.35157 0.36099
v -0.05453 1.32357 0.28099
v -0.01453 1.30310 0.37327
v -0.05453 1.27510 0.29327
v -0.05453 1.32357 0.28099
v -0.01453 1.35157 0.36099
v -0.01453 1.30310 0.37327
v -0.05453 1.27510 0.29327
v 0.02500 1.27453 0.36227
v -0.01500 1.24653 0.28227
v -0.05453 1.27510 0.29327
v -0.01453 1.30310 0.37327
v 0.02500 1.27453 0.36227
v -0.01500 1.24653 0.28227
v 0.06453 1.29443 0.33901
v 0.02453 1.26643 0.25901
v -0.01500 1.24653 0.28227
v 0.02500 1.27453 0.36227
v 0.06453 1.29443 0.33901
v 0.02453 1.26643 0.25901
v 0.06453 1.34290 0.32673
v 0.02453 1.31490 0.24673
v 0.02453 1.26643 0.25901
v 0.06453 1.29443 0.33901
v 0.06453 1.34290 0.32673
v 0.06453 1.34290 0.32673
v 0.05200 1.36787 0.39492
v 0.02500 1.37147 0.33773
v 0.06453 1.34290 0.32673
v 0.08125 1.34672 0.38678
v 0.05200 1.36787 0.39492
v 0.02500 1.37147 0.33773
v 0.02275 1.35314 0.41213
v -0.01453 1.35157 0.36099
v 0.02500 1.37147 0.33773
v 0.05200 1.36787 0.39492
v 0.02275 1.35314 0.41213
v -0.01453 1.35157 0.36099
v 0.02275 1.31728 0.42122
v -0.01453 1.30310 0.37327
v -0.01453 1.35157 0.36099
v 0.02275 1.35314 0.41213
v 0.02275 1.31728 0.42122
v -0.01453 1.30310 0.37327
v 0.05200 1.29613 0.41308
v 0.02500 1.27453 0.36227
v -0.01453 1.30310 0.37327
v 0.02275 1.31728 0.42122
v 0.05200 1.29613 0.41308
v 0.02500 1.27453 0.36227
v 0.08125 1.31086 0.39587
v 0.06453 1.29443 0.33901
v 0.02500 1.27453 0.36227
v 0.05200 1.29613 0.41308
v 0.08125 1.31086 0.39587
v 0.06453 1.29443 0.33901
v 0.08125 1.34672 0.38678
v 0.06453 1.34290 0.32673
v 0.06453 1.29443 0.33901
v 0.08125 1.31086 0.39587
v 0.08125 1.34672 0.38678
v 0.08125 1.34672 0.38678
v 0.05600 1.35145 0.41958
v 0.05200 1.36787 0.39492
v 0.08125 1.34672 0.38678
v 0.07023 1.34116 0.41562
v 0.05600 1.35145 0.41958
v 0.05200 1.36787 0.39492
v 0.04177 1.34429 0.42796
v 0.02275 1.35314 0.41213
v 0.05200 1.36787 0.39492
v 0.05600 1.35145 0.41958
v 0.04177 1.34429 0.42796
v 0.02275 1.35314 0.41213
v 0.04177 1.32684 0.43238
v 0.02275 1.31728 0.42122
v 0.02275 1.35314 0.41213
v 0.04177 1.34429 0.42796
v 0.04177 1.32684 0.43238
v 0.02275 1.31728 0.42122
v 0.05600 1.31655 0.42842
v 0.05200 1.29613 0.41308
v 0.02275 1.31728 0.42122
v 0.04177 1.32684 0.43238
v 0.05600 1.31655 0.42842
v 0.05200 1.29613 0.41308
v 0.07023 1.32371 0.42004
v 0.08125 1.31086 0.39587
v 0.05200 1.29613 0.41308
v 0.05600 1.31655 0.42842
v 0.07023 1.32371 0.42004
v 0.08125 1.31086 0.39587
v 0.07023 1.34116 0.41562
v 0.08125 1.34672 0.38678
v 0.08125 1.31086 0.39587
v 0.07023 1.32371 0.42004
v 0.07023 1.34116 0.41562
v 0.02453 1.31490 0.24673
v -0.01500 1.34347 0.25773
v -0.05453 1.32357 0.28099
v 0.07023 1.34116 0.41562
v 0.04177 1.34429 0.42796
v 0.05600 1.35145 0.41958
v 0.02453 1.31490 0.24673
v -0.05453 1.32357 0.28099
v -0.05453 1.27510 0.29327
v 0.07023 1.34116 0.41562
v 0.04177 1.32684 0.43238
v 0.04177 1.34429 0.42796
v 0.02453 1.31490 0.24673
v -0.05453 1.27510 0.29327
v -0.01500 1.24653 0.28227
v 0.07023 1.34116 0.41562
v 0.05600 1.31655 0.42842
v 0.04177 1.32684 0.43238
v 0.02453 1.31490 0.24673
v -0.01500 1.24653 0.28227
v 0.02453 1.26643 0.25901
v 0.07023 1.34116 0.41562
v 0.07023 1.32371 0.42004
v 0.05600 1.31655 0.42842
f 733 734 735
f 736 737 738
f 739 740 741
f 742 743 744
f 745 746 747
f 748 749 750
f 751 752 753
f 754 755 756
f 757 758 759
f 760 761 762
f 763 764 765
f 766 767 768
f 769 770 771
f 772 773 774
f 775 776 777
f 778 779 780
f 781 782 783
f 784 785 786
f 787 788 789
f 790 791 792
f 793 794 795
f 796 797 798
f 799 800 801
f 802 803 804
f 805 806 807
f 808 809 810
f 811 812 813
f 814 815 816
f 817 818 819
f 820 821 822
f 823 824 825
f 826 827 828
f 829 830 831
f 832 833 834
f 835 836 837
f 838 839 840
f 841 842 843
f 844 845 846
f 847 848 849
f 850 851 852
f 853 854 855
f 856 857 858
f 859 860 861
f 862 863 864
v 0.08270 1.31151 0.42344
v 0.04649 1.25584 0.40907
v 0.04580 1.30626 0.43422
v 0.08270 1.31151 0.42344
v 0.08451 1.26125 0.39797
v 0.04649 1.25584 0.40907
v 0.04580 1.30626 0.43422
v 0.02300 1.27000 0.38000
v 0.02300 1.32000 0.40600
v 0.04580 1.30626 0.43422
v 0.04649 1.25584 0.40907
v 0.02300 1.27000 0.38000
v 0.02300 1.32000 0.40600
v 0.04649 1.28416 0.35093
v 0.04580 1.33374 0.37778
v 0.02300 1.32000 0.40600
v 0.02300 1.27000 0.38000
v 0.04649 1.28416 0.35093
v 0.04580 1.33374 0.37778
v 0.08451 1.27875 0.36203
v 0.08270 1.32849 0.38856
v 0.04580 1.33374 0.37778
v 0.04649 1.28416 0.35093
v 0.08451 1.27875 0.36203
v 0.08270 1.32849 0.38856
v 0.08451 1.26125 0.39797
v 0.08270 1.31151 0.42344
v 0.08270 1.32849 0.38856
v 0.08451 1.27875 0.36203
v 0.08451 1.26125 0.39797
v 0.08451 1.26125 0.39797
v 0.05106 1.19834 0.36368
v 0.04649 1.25584 0.40907
v 0.08451 1.26125 0.39797
v 0.06894 1.20088 0.35846
v 0.05106 1.19834 0.36368
v 0.04649 1.25584 0.40907
v 0.04000 1.20500 0.35000
v 0.02300 1.27000 0.38000
v 0.04649 1.25584 0.40907
v 0.05106 1.19834 0.36368
v 0.04000 1.20500 0.35000
v 0.02300 1.27000 0.38000
v 0.05106 1.21166 0.33632
v 0.04649 1.28416 0.35093
v 0.02300 1.27000 0.38000
v 0.04000 1.20500 0.35000
v 0.05106 1.21166 0.33632
v 0.04649 1.28416 0.35093
v 0.06894 1.20912 0.34154
v 0.08451 1.27875 0.36203
v 0.04649 1.28416 0.35093
v 0.05106 1.21166 0.33632
v 0.06894 1.20912 0.34154
v 0.08451 1.27875 0.36203
v 0.06894 1.20088 0.35846
v 0.08451 1.26125 0.39797
v 0.08451 1.27875 0.36203
v 0.06894 1.20912 0.34154
v 0.06894 1.20088 0.35846
v 0.08270 1.31151 0.42344
v 0.04580 1.30626 0.43422
v 0.02300 1.32000 0.40600
v 0.06894 1.20088 0.35846
v 0.04000 1.20500 0.35000
v 0.05106 1.19834 0.36368
v 0.08270 1.31151 0.42344
v 0.02300 1.32000 0.40600
v 0.04580 1.33374 0.37778
v 0.06894 1.20088 0.35846
v 0.05106 1.21166 0.33632
v 0.04000 1.20500 0.35000
v 0.08270 1.31151 0.42344
v 0.04580 1.33374 0.37778
v 0.08270 1.32849 0.38856
v 0.06894 1.20088 0.35846
v 0.06894 1.20912 0.34154
v 0.05106 1.21166 0.33632
f 865 866 867
f 868 869 870
f 871 872 873
f 874 875 876
f 877 878 879
f 880 881 882
f 883 884 885
f 886 887 888
f 889 890 891
f 892 893 894
f 895 896 897
f 898 899 900
f 901 902 903
f 904 905 906
f 907 908 909
f 910 911 912
f 913 914 915
f 916 917 918
f 919 920 921
f 922 923 924
f 925 926 927
f 928 929 930
f 931 932 933
f 934 935 936
f 937 938 939
f 940 941 942
v 0.07218 1.21399 0.36440
v 0.04015 1.15934 0.38016
v 0.03982 1.21704 0.36318
v 0.07218 1.21399 0.36440
v 0.05985 1.15749 0.38091
v 0.04015 1.15934 0.38016
v 0.03982 1.21704 0.36318
v 0.04015 1.15251 0.36309
v 0.03982 1.20601 0.33560
v 0.03982 1.21704 0.36318
v 0.04015 1.15934 0.38016
v 0.04015 1.15251 0.36309
v 0.03982 1.20601 0.33560
v 0.05985 1.15066 0.36384
v 0.07218 1.20296 0.33682
v 0.03982 1.20601 0.33560
v 0.04015 1.15251 0.36309
v 0.05985 1.15066 0.36384
v 0.07218 1.20296 0.33682
v 0.05985 1.15749 0.38091
v 0.07218 1.21399 0.36440
v 0.07218 1.20296 0.33682
v 0.05985 1.15066 0.36384
v 0.05985 1.15749 0.38091
v 0.07218 1.21399 0.36440
v 0.03982 1.21704 0.36318
v 0.03982 1.20601 0.33560
v 0.05985 1.15749 0.38091
v 0.04015 1.15251 0.36309
v 0.04015 1.15934 0.38016
v 0.07218 1.21399 0.36440
v 0.03982 1.20601 0.33560
v 0.07218 1.20296 0.33682
v 0.05985 1.15749 0.38091
v 0.05985 1.15066 0.36384
v 0.04015 1.15251 0.36309
f 943 944 945
f 946 947 948
f 949 950 951
f 952 953 954
f 955 956 957
f 958 959 960
f 961 962 963
f 964 965 966
f 967 968 969
f 970 971 972
f 973 974 975
f 976 977 978
v 0.04319 1.26799 0.30157
v -0.04800 1.30060 0.40062
v 0.01000 1.28653 0.28373
v 0.04319 1.26799 0.30157
v -0.01955 1.28470 0.41592
v -0.04800 1.30060 0.40062
v 0.01000 1.28653 0.28373
v -0.07645 1.28089 0.39070
v -0.02319 1.26354 0.27215
v 0.01000 1.28653 0.28373
v -0.04800 1.30060 0.40062
v -0.07645 1.28089 0.39070
v -0.02319 1.26354 0.27215
v -0.07645 1.24530 0.39608
v -0.02319 1.22201 0.27843
v -0.02319 1.26354 0.27215
v -0.07645 1.28089 0.39070
v -0.07645 1.24530 0.39608
v -0.02319 1.22201 0.27843
v -0.04800 1.22940 0.41138
v 0.01000 1.20347 0.29627
v -0.02319 1.22201 0.27843
v -0.07645 1.24530 0.39608
v -0.04800 1.22940 0.41138
v 0.01000 1.20347 0.29627
v -0.01955 1.24911 0.42130
v 0.04319 1.22646 0.30785
v 0.01000 1.20347 0.29627
v -0.04800 1.22940 0.41138
v -0.01955 1.24911 0.42130
v 0.04319 1.22646 0.30785
v -0.01955 1.28470 0.41592
v 0.04319 1.26799 0.30157
v 0.04319 1.22646 0.30785
v -0.01955 1.24911 0.42130
v -0.01955 1.28470 0.41592
v -0.01955 1.28470 0.41592
v -0.05300 1.28380 0.42631
v -0.04800 1.30060 0.40062
v -0.01955 1.28470 0.41592
v -0.03877 1.27585 0.43396
v -0.05300 1.28380 0.42631
v -0.04800 1.30060 0.40062
v -0.06723 1.27395 0.42135
v -0.07645 1.28089 0.39070
v -0.04800 1.30060 0.40062
v -0.05300 1.28380 0.42631
v -0.06723 1.27395 0.42135
v -0.07645 1.28089 0.39070
v -0.06723 1.25615 0.42404
v -0.07645 1.24530 0.39608
v -0.07645 1.28089 0.39070
v -0.06723 1.27395 0.42135
v -0.06723 1.25615 0.42404
v -0.07645 1.24530 0.39608
v -0.05300 1.24820 0.43169
v -0.04800 1.22940 0.41138
v -0.07645 1.24530 0.39608
v -0.06723 1.25615 0.42404
v -0.05300 1.24820 0.43169
v -0.04800 1.22940 0.41138
v -0.03877 1.25805 0.43665
v -0.01955 1.24911 0.42130
v -0.04800 1.22940 0.41138
v -0.05300 1.24820 0.43169
v -0.03877 1.25805 0.43665
v -0.01955 1.24911 0.42130
v -0.03877 1.27585 0.43396
v -0.01955 1.28470 0.41592
v -0.01955 1.24911 0.42130
v -0.03877 1.25805 0.43665
v -0.03877 1.27585 0.43396
v 0.04319 1.26799 0.30157
v 0.01000 1.28653 0.28373
v -0.02319 1.26354 0.27215
v -0.03877 1.27585 0.43396
v -0.06723 1.27395 0.42135
v -0.05300 1.28380 0.42631
v 0.04319 1.26799 0.30157
v -0.02319 1.26354 0.27215
v -0.02319 1.22201 0.27843
v -0.03877 1.27585 0.43396
v -0.06723 1.25615 0.42404
v -0.06723 1.27395 0.42135
v 0.04319 1.26799 0.30157
v -0.02319 1.22201 0.27843
v 0.01000 1.20347 0.29627
v -0.03877 1.27585 0.43396
v -0.05300 1.24820 0.43169
v -0.06723 1.25615 0.42404
v 0.04319 1.26799 0.30157
v 0.01000 1.20347 0.29627
v 0.04319 1.22646 0.30785
v -0.03877 1.27585 0.43396
v -0.03877 1.25805 0.43665
v -0.05300 1.24820 0.43169
f 979 980 981
f 982 983 984
f 985 986 987
f 988 989 990
f 991 992 993
f 994 995 996
f 997 998 999
f 1000 1001 1002
f 1003 1004 1005
f 1006 1007 1008
f 1009 1010 1011
f 1012 1013 1014
f 1015 1016 1017
f 1018 1019 1020
f 1021 1022 1023
f 1024 1025 1026
f 1027 1028 1029
f 1030 1031 1032
f 1033 1034 1035
f 1036 1037 1038
f 1039 1040 1041
f 1042 1043 1044
f 1045 1046 1047
f 1048 1049 1050
f 1051 1052 1053
f 1054 1055 1056
f 1057 1058 1059
f 1060 1061 1062
f 1063 1064 1065
f 1066 1067 1068
f 1069 1070 1071
f 1072 1073 1074
v -0.02151 1.25625 0.42797
v -0.04196 1.18093 0.42413
v -0.05535 1.24648 0.43730
v -0.02151 1.25625 0.42797
v -0.00593 1.19133 0.41419
v -0.04196 1.18093 0.42413
v -0.05535 1.24648 0.43730
v -0.06422 1.18306 0.39243
v -0.07627 1.24848 0.40753
v -0.05535 1.24648 0.43730
v -0.04196 1.18093 0.42413
v -0.06422 1.18306 0.39243
v -0.07627 1.24848 0.40753
v -0.04196 1.19478 0.36290
v -0.05535 1.25949 0.37979
v -0.07627 1.24848 0.40753
v -0.06422 1.18306 0.39243
v -0.04196 1.19478 0.36290
v -0.05535 1.25949 0.37979
v -0.00593 1.19989 0.37635
v -0.02151 1.26429 0.39242
v -0.05535 1.25949 0.37979
v -0.04196 1.19478 0.36290
v -0.00593 1.19989 0.37635
v -0.02151 1.26429 0.39242
v -0.00593 1.19133 0.41419
v -0.02151 1.25625 0.42797
v -0.02151 1.26429 0.39242
v -0.00593 1.19989 0.37635
v -0.00593 1.19133 0.41419
v -0.00593 1.19133 0.41419
v -0.00722 1.06115 0.37878
v -0.04196 1.18093 0.42413
v -0.00593 1.19133 0.41419
v 0.00806 1.06556 0.37456
v -0.00722 1.06115 0.37878
v -0.04196 1.18093 0.42413
v -0.01667 1.06206 0.36533
v -0.06422 1.18306 0.39243
v -0.04196 1.18093 0.42413
v -0.00722 1.06115 0.37878
v -0.01667 1.06206 0.36533
v -0.06422 1.18306 0.39243
v -0.00722 1.06703 0.35281
v -0.04196 1.19478 0.36290
v -0.06422 1.18306 0.39243
v -0.01667 1.06206 0.36533
v -0.00722 1.06703 0.35281
v -0.04196 1.19478 0.36290
v 0.00806 1.06920 0.35851
v -0.00593 1.19989 0.37635
v -0.04196 1.19478 0.36290
v -0.00722 1.06703 0.35281
v 0.00806 1.06920 0.35851
v -0.00593 1.19989 0.37635
v 0.00806 1.06556 0.37456
v -0.00593 1.19133 0.41419
v -0.00593 1.19989 0.37635
v 0.00806 1.06920 0.35851
v 0.00806 1.06556 0.37456
v -0.02151 1.25625 0.42797
v -0.05535 1.24648 0.43730
v -0.07627 1.24848 0.40753
v 0.00806 1.06556 0.37456
v -0.01667 1.06206 0.36533
v -0.00722 1.06115 0.37878
v -0.02151 1.25625 0.42797
v -0.07627 1.24848 0.40753
v -0.05535 1.25949 0.37979
v 0.00806 1.06556 0.37456
v -0.00722 1.06703 0.35281
v -0.01667 1.06206 0.36533
v -0.02151 1.25625 0.42797
v -0.05535 1.25949 0.37979
v -0.02151 1.26429 0.39242
v 0.00806 1.06556 0.37456
v 0.00806 1.06920 0.35851
v -0.00722 1.06703 0.35281
f 1075 1076 1077
f 1078 1079 1080
f 1081 1082 1083
f 1084 1085 1086
f 1087 1088 1089
f 1090 1091 1092
f 1093 1094 1095
f 1096 1097 1098
f 1099 1100 1101
f 1102 1103 1104
f 1105 1106 1107
f 1108 1109 1110
f 1111 1112 1113
f 1114 1115 1116
f 1117 1118 1119
f 1120 1121 1122
f 1123 1124 1125
f 1126 1127 1128
f 1129 1130 1131
f 1132 1133 1134
f 1135 1136 1137
f 1138 1139 1140
f 1141 1142 1143
f 1144 1145 1146
f 1147 1148 1149
f 1150 1151 1152
v 0.00973 1.06960 0.37863
v -0.01149 0.99007 0.38442
v -0.01573 1.06960 0.37863
v 0.00973 1.06960 0.37863
v 0.00549 0.99007 0.38442
v -0.01149 0.99007 0.38442
v -0.01573 1.06960 0.37863
v -0.01149 0.98793 0.36758
v -0.01573 1.06640 0.35337
v -0.01573 1.06960 0.37863
v -0.01149 0.99007 0.38442
v -0.01149 0.98793 0.36758
v -0.01573 1.06640 0.35337
v 0.00549 0.98793 0.36758
v 0.00973 1.06640 0.35337
v -0.01573 1.06640 0.35337
v -0.01149 0.98793 0.36758
v 0.00549 0.98793 0.36758
v 0.00973 1.06640 0.35337
v 0.00549 0.99007 0.38442
v 0.00973 1.06960 0.37863
v 0.00973 1.06640 0.35337
v 0.00549 0.98793 0.36758
v 0.00549 0.99007 0.38442
v 0.00973 1.06960 0.37863
v -0.01573 1.06960 0.37863
v -0.01573 1.06640 0.35337
v 0.00549 0.99007 0.38442
v -0.01149 0.98793 0.36758
v -0.01149 0.99007 0.38442
v 0.00973 1.06960 0.37863
v -0.01573 1.06640 0.35337
v 0.00973 1.06640 0.35337
v 0.00549 0.99007 0.38442
v 0.00549 0.98793 0.36758
v -0.01149 0.98793 0.36758
f 1153 1154 1155
f 1156 1157 1158
f 1159 1160 1161
f 1162 1163 1164
f 1165 1166 1167
f 1168 1169 1170
f 1171 1172 1173
f 1174 1175 1176
f 1177 1178 1179
f 1180 1181 1182
f 1183 1184 1185
f 1186 1187 1188
v 0.01326 1.48185 0.31848
v 0.00110 1.53450 0.30857
v 0.00200 1.48399 0.31181
v 0.01326 1.48185 0.31848
v 0.02794 1.52929 0.32476
v 0.00110 1.53450 0.30857
v 0.00200 1.48399 0.31181
v -0.02574 1.52831 0.32441
v -0.00926 1.48144 0.31833
v 0.00200 1.48399 0.31181
v 0.00110 1.53450 0.30857
v -0.02574 1.52831 0.32441
v -0.00926 1.48144 0.31833
v -0.02574 1.51690 0.35644
v -0.00926 1.47674 0.33152
v -0.00926 1.48144 0.31833
v -0.02574 1.52831 0.32441
v -0.02574 1.51690 0.35644
v -0.00926 1.47674 0.33152
v 0.00110 1.51169 0.37263
v 0.00200 1.47460 0.33819
v -0.00926 1.47674 0.33152
v -0.02574 1.51690 0.35644
v 0.00110 1.51169 0.37263
v 0.00200 1.47460 0.33819
v 0.02794 1.51788 0.35679
v 0.01326 1.47715 0.33167
v 0.00200 1.47460 0.33819
v 0.00110 1.51169 0.37263
v 0.02794 1.51788 0.35679
v 0.01326 1.47715 0.33167
v 0.02794 1.52929 0.32476
v 0.01326 1.48185 0.31848
v 0.01326 1.47715 0.33167
v 0.02794 1.51788 0.35679
v 0.02794 1.52929 0.32476
v 0.02794 1.52929 0.32476
v 0.00005 1.58963 0.31547
v 0.00110 1.53450 0.30857
v 0.02794 1.52929 0.32476
v 0.03555 1.58256 0.33736
v 0.00005 1.58963 0.31547
v 0.00110 1.53450 0.30857
v -0.03545 1.58127 0.33690
v -0.02574 1.52831 0.32441
v 0.00110 1.53450 0.30857
v 0.00005 1.58963 0.31547
v -0.03545 1.58127 0.33690
v -0.02574 1.52831 0.32441
v -0.03545 1.56583 0.38024
v -0.02574 1.51690 0.35644
v -0.02574 1.52831 0.32441
v -0.03545 1.58127 0.33690
v -0.03545 1.56583 0.38024
v -0.02574 1.51690 0.35644
v 0.00005 1.55876 0.40213
v 0.00110 1.51169 0.37263
v -0.02574 1.51690 0.35644
v -0.03545 1.56583 0.38024
v 0.00005 1.55876 0.40213
v 0.00110 1.51169 0.37263
v 0.03555 1.56713 0.38070
v 0.02794 1.51788 0.35679
v 0.00110 1.51169 0.37263
v 0.00005 1.55876 0.40213
v 0.03555 1.56713 0.38070
v 0.02794 1.51788 0.35679
v 0.03555 1.58256 0.33736
v 0.02794 1.52929 0.32476
v 0.02794 1.51788 0.35679
v 0.03555 1.56713 0.38070
v 0.03555 1.58256 0.33736
v 0.03555 1.58256 0.33736
v -0.00070 1.62311 0.33694
v 0.00005 1.58963 0.31547
v 0.03555 1.58256 0.33736
v 0.02787 1.61742 0.35456
v -0.00070 1.62311 0.33694
v 0.00005 1.58963 0.31547
v -0.02927 1.61638 0.35419
v -0.03545 1.58127 0.33690
v 0.00005 1.58963 0.31547
v -0.00070 1.62311 0.33694
v -0.02927 1.61638 0.35419
v -0.03545 1.58127 0.33690
v -0.02927 1.60397 0.38904
v -0.03545 1.56583 0.38024
v -0.03545 1.58127 0.33690
v -0.02927 1.61638 0.35419
v -0.02927 1.60397 0.38904
v -0.03545 1.56583 0.38024
v -0.00070 1.59828 0.40666
v 0.00005 1.55876 0.40213
v -0.03545 1.56583 0.38024
v -0.02927 1.60397 0.38904
v -0.00070 1.59828 0.40666
v 0.00005 1.55876 0.40213
v 0.02787 1.60501 0.38941
v 0.03555 1.56713 0.38070
v 0.00005 1.55876 0.40213
v -0.00070 1.59828 0.40666
v 0.02787 1.60501 0.38941
v 0.03555 1.56713 0.38070
v 0.02787 1.61742 0.35456
v 0.03555 1.58256 0.33736
v 0.03555 1.56713 0.38070
v 0.02787 1.60501 0.38941
v 0.02787 1.61742 0.35456
v 0.02787 1.61742 0.35456
v -0.00100 1.63100 0.36099
v -0.00070 1.62311 0.33694
v 0.02787 1.61742 0.35456
v 0.01199 1.62838 0.36908
v -0.00100 1.63100 0.36099
v -0.00070 1.62311 0.33694
v -0.01399 1.62791 0.36891
v -0.02927 1.61638 0.35419
v -0.00070 1.62311 0.33694
v -0.00100 1.63100 0.36099
v -0.01399 1.62791 0.36891
v -0.02927 1.61638 0.35419
v -0.01399 1.62221 0.38492
v -0.02927 1.60397 0.38904
v -0.02927 1.61638 0.35419
v -0.01399 1.62791 0.36891
v -0.01399 1.62221 0.38492
v -0.02927 1.60397 0.38904
v -0.00100 1.61959 0.39301
v -0.00070 1.59828 0.40666
v -0.02927 1.60397 0.38904
v -0.01399 1.62221 0.38492
v -0.00100 1.61959 0.39301
v -0.00070 1.59828 0.40666
v 0.01199 1.62268 0.38509
v 0.02787 1.60501 0.38941
v -0.00070 1.59828 0.40666
v -0.00100 1.61959 0.39301
v 0.01199 1.62268 0.38509
v 0.02787 1.60501 0.38941
v 0.01199 1.62838 0.36908
v 0.02787 1.61742 0.35456
v 0.02787 1.60501 0.38941
v 0.01199 1.62268 0.38509
v 0.01199 1.62838 0.36908
v 0.01326 1.48185 0.31848
v 0.00200 1.48399 0.31181
v -0.00926 1.48144 0.31833
v 0.01199 1.62838 0.36908
v -0.01399 1.62791 0.36891
v -0.00100 1.63100 0.36099
v 0.01326 1.48185 0.31848
v -0.00926 1.48144 0.31833
v -0.00926 1.47674 0.33152
v 0.01199 1.62838 0.36908
v -0.01399 1.62221 0.38492
v -0.01399 1.62791 0.36891
v 0.01326 1.48185 0.31848
v -0.00926 1.47674 0.33152
v 0.00200 1.47460 0.33819
v 0.01199 1.62838 0.36908
v -0.00100 1.61959 0.39301
v -0.01399 1.62221 0.38492
v 0.01326 1.48185 0.31848
v 0.00200 1.47460 0.33819
v 0.01326 1.47715 0.33167
v 0.01199 1.62838 0.36908
v 0.01199 1.62268 0.38509
v -0.00100 1.61959 0.39301
f 1189 1190 1191
f 1192 1193 1194
f 1195 1196 1197
f 1198 1199 1200
f 1201 1202 1203
f 1204 1205 1206
f 1207 1208 1209
f 1210 1211 1212
f 1213 1214 1215
f 1216 1217 1218
f 1219 1220 1221
f 1222 1223 1224
f 1225 1226 1227
f 1228 1229 1230
f 1231 1232 1233
f 1234 1235 1236
f 1237 1238 1239
f 1240 1241 1242
f 1243 1244 1245
f 1246 1247 1248
f 1249 1250 1251
f 1252 1253 1254
f 1255 1256 1257
f 1258 1259 1260
f 1261 1262 1263
f 1264 1265 1266
f 1267 1268 1269
f 1270 1271 1272
f 1273 1274 1275
f 1276 1277 1278
f 1279 1280 1281
f 1282 1283 1284
f 1285 1286 1287
f 1288 1289 1290
f 1291 1292 1293
f 1294 1295 1296
f 1297 1298 1299
f 1300 1301 1302
f 1303 1304 1305
f 1306 1307 1308
f 1309 1310 1311
f 1312 1313 1314
f 1315 1316 1317
f 1318 1319 1320
f 1321 1322 1323
f 1324 1325 1326
f 1327 1328 1329
f 1330 1331 1332
f 1333 1334 1335
f 1336 1337 1338
f 1339 1340 1341
f 1342 1343 1344
f 1345 1346 1347
f 1348 1349 1350
f 1351 1352 1353
f 1354 1355 1356
