# metres, +Y up; written by check.gd from seated_woman_asset.gd
o seated_woman_67_089
v 0.10150 0.00000 0.12050
v 0.10150 0.06000 -0.12050
v 0.10150 0.00000 -0.12050
v 0.10150 0.00000 0.12050
v 0.10150 0.06000 0.12050
v 0.10150 0.06000 -0.12050
v 0.10150 0.00000 -0.12050
v -0.10150 0.06000 -0.12050
v -0.10150 0.00000 -0.12050
v 0.10150 0.00000 -0.12050
v 0.10150 0.06000 -0.12050
v -0.10150 0.06000 -0.12050
v -0.10150 0.00000 -0.12050
v -0.10150 0.06000 0.12050
v -0.10150 0.00000 0.12050
v -0.10150 0.00000 -0.12050
v -0.10150 0.06000 -0.12050
v -0.10150 0.06000 0.12050
v -0.10150 0.00000 0.12050
v 0.10150 0.06000 0.12050
v 0.10150 0.00000 0.12050
v -0.10150 0.00000 0.12050
v -0.10150 0.06000 0.12050
v 0.10150 0.06000 0.12050
v 0.10150 0.00000 0.12050
v 0.10150 0.00000 -0.12050
v -0.10150 0.00000 -0.12050
v 0.10150 0.06000 0.12050
v -0.10150 0.06000 -0.12050
v 0.10150 0.06000 -0.12050
v 0.10150 0.00000 0.12050
v -0.10150 0.00000 -0.12050
v -0.10150 0.00000 0.12050
v 0.10150 0.06000 0.12050
v -0.10150 0.06000 0.12050
v -0.10150 0.06000 -0.12050
f 1 2 3
f 4 5 6
f 7 8 9
f 10 11 12
f 13 14 15
f 16 17 18
f 19 20 21
f 22 23 24
f 25 26 27
f 28 29 30
f 31 32 33
f 34 35 36
v 0.07200 0.06000 0.08500
v 0.07200 0.06900 -0.08500
v 0.07200 0.06000 -0.08500
v 0.07200 0.06000 0.08500
v 0.07200 0.06900 0.08500
v 0.07200 0.06900 -0.08500
v 0.07200 0.06000 -0.08500
v -0.07200 0.06900 -0.08500
v -0.07200 0.06000 -0.08500
v 0.07200 0.06000 -0.08500
v 0.07200 0.06900 -0.08500
v -0.07200 0.06900 -0.08500
v -0.07200 0.06000 -0.08500
v -0.07200 0.06900 0.08500
v -0.07200 0.06000 0.08500
v -0.07200 0.06000 -0.08500
v -0.07200 0.06900 -0.08500
v -0.07200 0.06900 0.08500
v -0.07200 0.06000 0.08500
v 0.07200 0.06900 0.08500
v 0.07200 0.06000 0.08500
v -0.07200 0.06000 0.08500
v -0.07200 0.06900 0.08500
v 0.07200 0.06900 0.08500
v 0.07200 0.06000 0.08500
v 0.07200 0.06000 -0.08500
v -0.07200 0.06000 -0.08500
v 0.07200 0.06900 0.08500
v -0.07200 0.06900 -0.08500
v 0.07200 0.06900 -0.08500
v 0.07200 0.06000 0.08500
v -0.07200 0.06000 -0.08500
v -0.07200 0.06000 0.08500
v 0.07200 0.06900 0.08500
v -0.07200 0.06900 0.08500
v -0.07200 0.06900 -0.08500
f 37 38 39
f 40 41 42
f 43 44 45
f 46 47 48
f 49 50 51
f 52 53 54
f 55 56 57
f 58 59 60
f 61 62 63
f 64 65 66
f 67 68 69
f 70 71 72
v 0.01700 0.06900 -0.00500
v 0.01700 0.32000 -0.09500
v 0.01700 0.06900 -0.09500
v 0.01700 0.06900 -0.00500
v 0.01700 0.32000 -0.00500
v 0.01700 0.32000 -0.09500
v 0.01700 0.06900 -0.09500
v -0.06300 0.32000 -0.09500
v -0.06300 0.06900 -0.09500
v 0.01700 0.06900 -0.09500
v 0.01700 0.32000 -0.09500
v -0.06300 0.32000 -0.09500
v -0.06300 0.06900 -0.09500
v -0.06300 0.32000 -0.00500
v -0.06300 0.06900 -0.00500
v -0.06300 0.06900 -0.09500
v -0.06300 0.32000 -0.09500
v -0.06300 0.32000 -0.00500
v -0.06300 0.06900 -0.00500
v 0.01700 0.32000 -0.00500
v 0.01700 0.06900 -0.00500
v -0.06300 0.06900 -0.00500
v -0.06300 0.32000 -0.00500
v 0.01700 0.32000 -0.00500
v 0.01700 0.06900 -0.00500
v 0.01700 0.06900 -0.09500
v -0.06300 0.06900 -0.09500
v 0.01700 0.32000 -0.00500
v -0.06300 0.32000 -0.09500
v 0.01700 0.32000 -0.09500
v 0.01700 0.06900 -0.00500
v -0.06300 0.06900 -0.09500
v -0.06300 0.06900 -0.00500
v 0.01700 0.32000 -0.00500
v -0.06300 0.32000 -0.00500
v -0.06300 0.32000 -0.09500
f 73 74 75
f 76 77 78
f 79 80 81
f 82 83 84
f 85 86 87
f 88 89 90
f 91 92 93
f 94 95 96
f 97 98 99
f 100 101 102
f 103 104 105
f 106 107 108
v 0.04330 0.31324 -0.08227
v 0.00000 0.36864 -0.11738
v 0.00000 0.31648 -0.10453
v 0.04330 0.31324 -0.08227
v 0.05456 0.36432 -0.08769
v 0.00000 0.36864 -0.11738
v 0.00000 0.31648 -0.10453
v -0.05456 0.36432 -0.08769
v -0.04330 0.31324 -0.08227
v 0.00000 0.31648 -0.10453
v 0.00000 0.36864 -0.11738
v -0.05456 0.36432 -0.08769
v -0.04330 0.31324 -0.08227
v -0.05456 0.35568 -0.02831
v -0.04330 0.30676 -0.03773
v -0.04330 0.31324 -0.08227
v -0.05456 0.36432 -0.08769
v -0.05456 0.35568 -0.02831
v -0.04330 0.30676 -0.03773
v -0.00000 0.35136 0.00138
v -0.00000 0.30352 -0.01547
v -0.04330 0.30676 -0.03773
v -0.05456 0.35568 -0.02831
v -0.00000 0.35136 0.00138
v -0.00000 0.30352 -0.01547
v 0.05456 0.35568 -0.02831
v 0.04330 0.30676 -0.03773
v -0.00000 0.30352 -0.01547
v -0.00000 0.35136 0.00138
v 0.05456 0.35568 -0.02831
v 0.04330 0.30676 -0.03773
v 0.05456 0.36432 -0.08769
v 0.04330 0.31324 -0.08227
v 0.04330 0.30676 -0.03773
v 0.05456 0.35568 -0.02831
v 0.05456 0.36432 -0.08769
v 0.05456 0.36432 -0.08769
v 0.00000 0.43633 -0.08854
v 0.00000 0.36864 -0.11738
v 0.05456 0.36432 -0.08769
v 0.04503 0.43317 -0.06677
v 0.00000 0.43633 -0.08854
v 0.00000 0.36864 -0.11738
v -0.04503 0.43317 -0.06677
v -0.05456 0.36432 -0.08769
v 0.00000 0.36864 -0.11738
v 0.00000 0.43633 -0.08854
v -0.04503 0.43317 -0.06677
v -0.05456 0.36432 -0.08769
v -0.04503 0.42683 -0.02323
v -0.05456 0.35568 -0.02831
v -0.05456 0.36432 -0.08769
v -0.04503 0.43317 -0.06677
v -0.04503 0.42683 -0.02323
v -0.05456 0.35568 -0.02831
v -0.00000 0.42367 -0.00146
v -0.00000 0.35136 0.00138
v -0.05456 0.35568 -0.02831
v -0.04503 0.42683 -0.02323
v -0.00000 0.42367 -0.00146
v -0.00000 0.35136 0.00138
v 0.04503 0.42683 -0.02323
v 0.05456 0.35568 -0.02831
v -0.00000 0.35136 0.00138
v -0.00000 0.42367 -0.00146
v 0.04503 0.42683 -0.02323
v 0.05456 0.35568 -0.02831
v 0.04503 0.43317 -0.06677
v 0.05456 0.36432 -0.08769
v 0.05456 0.35568 -0.02831
v 0.04503 0.42683 -0.02323
v 0.04503 0.43317 -0.06677
v 0.04503 0.43317 -0.06677
v 0.00000 0.51691 -0.07950
v 0.00000 0.43633 -0.08854
v 0.04503 0.43317 -0.06677
v 0.06409 0.51345 -0.05575
v 0.00000 0.51691 -0.07950
v 0.00000 0.43633 -0.08854
v -0.06409 0.51345 -0.05575
v -0.04503 0.43317 -0.06677
v 0.00000 0.43633 -0.08854
v 0.00000 0.51691 -0.07950
v -0.06409 0.51345 -0.05575
v -0.04503 0.43317 -0.06677
v -0.06409 0.50655 -0.00825
v -0.04503 0.42683 -0.02323
v -0.04503 0.43317 -0.06677
v -0.06409 0.51345 -0.05575
v -0.06409 0.50655 -0.00825
v -0.04503 0.42683 -0.02323
v -0.00000 0.50309 0.01550
v -0.00000 0.42367 -0.00146
v -0.04503 0.42683 -0.02323
v -0.06409 0.50655 -0.00825
v -0.00000 0.50309 0.01550
v -0.00000 0.42367 -0.00146
v 0.06409 0.50655 -0.00825
v 0.04503 0.42683 -0.02323
v -0.00000 0.42367 -0.00146
v -0.00000 0.50309 0.01550
v 0.06409 0.50655 -0.00825
v 0.04503 0.42683 -0.02323
v 0.06409 0.51345 -0.05575
v 0.04503 0.43317 -0.06677
v 0.04503 0.42683 -0.02323
v 0.06409 0.50655 -0.00825
v 0.06409 0.51345 -0.05575
v 0.06409 0.51345 -0.05575
v 0.00000 0.59105 -0.06156
v 0.00000 0.51691 -0.07950
v 0.06409 0.51345 -0.05575
v 0.07448 0.58802 -0.04078
v 0.00000 0.59105 -0.06156
v 0.00000 0.51691 -0.07950
v -0.07448 0.58802 -0.04078
v -0.06409 0.51345 -0.05575
v 0.00000 0.51691 -0.07950
v 0.00000 0.59105 -0.06156
v -0.07448 0.58802 -0.04078
v -0.06409 0.51345 -0.05575
v -0.07448 0.58198 0.00078
v -0.06409 0.50655 -0.00825
v -0.06409 0.51345 -0.05575
v -0.07448 0.58802 -0.04078
v -0.07448 0.58198 0.00078
v -0.06409 0.50655 -0.00825
v -0.00000 0.57895 0.02156
v -0.00000 0.50309 0.01550
v -0.06409 0.50655 -0.00825
v -0.07448 0.58198 0.00078
v -0.00000 0.57895 0.02156
v -0.00000 0.50309 0.01550
v 0.07448 0.58198 0.00078
v 0.06409 0.50655 -0.00825
v -0.00000 0.50309 0.01550
v -0.00000 0.57895 0.02156
v 0.07448 0.58198 0.00078
v 0.06409 0.50655 -0.00825
v 0.07448 0.58802 -0.04078
v 0.06409 0.51345 -0.05575
v 0.06409 0.50655 -0.00825
v 0.07448 0.58198 0.00078
v 0.07448 0.58802 -0.04078
v 0.04330 0.31324 -0.08227
v 0.00000 0.31648 -0.10453
v -0.04330 0.31324 -0.08227
v 0.07448 0.58802 -0.04078
v -0.07448 0.58802 -0.04078
v 0.00000 0.59105 -0.06156
v 0.04330 0.31324 -0.08227
v -0.04330 0.31324 -0.08227
v -0.04330 0.30676 -0.03773
v 0.07448 0.58802 -0.04078
v -0.07448 0.58198 0.00078
v -0.07448 0.58802 -0.04078
v 0.04330 0.31324 -0.08227
v -0.04330 0.30676 -0.03773
v -0.00000 0.30352 -0.01547
v 0.07448 0.58802 -0.04078
v -0.00000 0.57895 0.02156
v -0.07448 0.58198 0.00078
v 0.04330 0.31324 -0.08227
v -0.00000 0.30352 -0.01547
v 0.04330 0.30676 -0.03773
v 0.07448 0.58802 -0.04078
v 0.07448 0.58198 0.00078
v -0.00000 0.57895 0.02156
f 109 110 111
f 112 113 114
f 115 116 117
f 118 119 120
f 121 122 123
f 124 125 126
f 127 128 129
f 130 131 132
f 133 134 135
f 136 137 138
f 139 140 141
f 142 143 144
f 145 146 147
f 148 149 150
f 151 152 153
f 154 155 156
f 157 158 159
f 160 161 162
f 163 164 165
f 166 167 168
f 169 170 171
f 172 173 174
f 175 176 177
f 178 179 180
f 181 182 183
f 184 185 186
f 187 188 189
f 190 191 192
f 193 194 195
f 196 197 198
f 199 200 201
f 202 203 204
f 205 206 207
f 208 209 210
f 211 212 213
f 214 215 216
f 217 218 219
f 220 221 222
f 223 224 225
f 226 227 228
f 229 230 231
f 232 233 234
f 235 236 237
f 238 239 240
f 241 242 243
f 244 245 246
f 247 248 249
f 250 251 252
f 253 254 255
f 256 257 258
f 259 260 261
f 262 263 264
f 265 266 267
f 268 269 270
f 271 272 273
f 274 275 276
v 0.10148 0.58505 0.00061
v 0.05521 0.46093 0.03390
v 0.05652 0.58639 0.00024
v 0.10148 0.58505 0.00061
v 0.09479 0.45975 0.03423
v 0.05521 0.46093 0.03390
v 0.05652 0.58639 0.00024
v 0.05521 0.45025 -0.00423
v 0.05652 0.57495 -0.04061
v 0.05652 0.58639 0.00024
v 0.05521 0.46093 0.03390
v 0.05521 0.45025 -0.00423
v 0.05652 0.57495 -0.04061
v 0.09479 0.44907 -0.00390
v 0.10148 0.57361 -0.04024
v 0.05652 0.57495 -0.04061
v 0.05521 0.45025 -0.00423
v 0.09479 0.44907 -0.00390
v 0.10148 0.57361 -0.04024
v 0.09479 0.45975 0.03423
v 0.10148 0.58505 0.00061
v 0.10148 0.57361 -0.04024
v 0.09479 0.44907 -0.00390
v 0.09479 0.45975 0.03423
v 0.10148 0.58505 0.00061
v 0.05652 0.58639 0.00024
v 0.05652 0.57495 -0.04061
v 0.09479 0.45975 0.03423
v 0.05521 0.45025 -0.00423
v 0.05521 0.46093 0.03390
v 0.10148 0.58505 0.00061
v 0.05652 0.57495 -0.04061
v 0.10148 0.57361 -0.04024
v 0.09479 0.45975 0.03423
v 0.09479 0.44907 -0.00390
v 0.05521 0.45025 -0.00423
f 277 278 279
f 280 281 282
f 283 284 285
f 286 287 288
f 289 290 291
f 292 293 294
f 295 296 297
f 298 299 300
f 301 302 303
f 304 305 306
f 307 308 309
f 310 311 312
v 0.08119 0.47461 0.04649
v -0.05657 0.56809 0.01433
v 0.07997 0.47546 0.00551
v 0.08119 0.47461 0.04649
v -0.05552 0.56735 0.04967
v -0.05657 0.56809 0.01433
v 0.07997 0.47546 0.00551
v -0.07448 0.54265 0.01433
v 0.05881 0.44539 0.00551
v 0.07997 0.47546 0.00551
v -0.05657 0.56809 0.01433
v -0.07448 0.54265 0.01433
v 0.05881 0.44539 0.00551
v -0.07343 0.54191 0.04967
v 0.06003 0.44454 0.04649
v 0.05881 0.44539 0.00551
v -0.07448 0.54265 0.01433
v -0.07343 0.54191 0.04967
v 0.06003 0.44454 0.04649
v -0.05552 0.56735 0.04967
v 0.08119 0.47461 0.04649
v 0.06003 0.44454 0.04649
v -0.07343 0.54191 0.04967
v -0.05552 0.56735 0.04967
v 0.08119 0.47461 0.04649
v 0.07997 0.47546 0.00551
v 0.05881 0.44539 0.00551
v -0.05552 0.56735 0.04967
v -0.07448 0.54265 0.01433
v -0.05657 0.56809 0.01433
v 0.08119 0.47461 0.04649
v 0.05881 0.44539 0.00551
v 0.06003 0.44454 0.04649
v -0.05552 0.56735 0.04967
v -0.07343 0.54191 0.04967
v -0.07448 0.54265 0.01433
f 313 314 315
f 316 317 318
f 319 320 321
f 322 323 324
f 325 326 327
f 328 329 330
f 331 332 333
f 334 335 336
f 337 338 339
f 340 341 342
f 343 344 345
f 346 347 348
v -0.06462 0.57721 0.00325
v -0.10147 0.42169 0.01831
v -0.10138 0.57666 0.00331
v -0.06462 0.57721 0.00325
v -0.06853 0.42219 0.01826
v -0.10147 0.42169 0.01831
v -0.10138 0.57666 0.00331
v -0.10147 0.41781 -0.01826
v -0.10138 0.57279 -0.03325
v -0.10138 0.57666 0.00331
v -0.10147 0.42169 0.01831
v -0.10147 0.41781 -0.01826
v -0.10138 0.57279 -0.03325
v -0.06853 0.41831 -0.01831
v -0.06462 0.57334 -0.03331
v -0.10138 0.57279 -0.03325
v -0.10147 0.41781 -0.01826
v -0.06853 0.41831 -0.01831
v -0.06462 0.57334 -0.03331
v -0.06853 0.42219 0.01826
v -0.06462 0.57721 0.00325
v -0.06462 0.57334 -0.03331
v -0.06853 0.41831 -0.01831
v -0.06853 0.42219 0.01826
v -0.06853 0.42219 0.01826
v -0.09214 0.24643 0.03549
v -0.10147 0.42169 0.01831
v -0.06853 0.42219 0.01826
v -0.06386 0.24685 0.03545
v -0.09214 0.24643 0.03549
v -0.10147 0.42169 0.01831
v -0.09214 0.24315 0.00455
v -0.10147 0.41781 -0.01826
v -0.10147 0.42169 0.01831
v -0.09214 0.24643 0.03549
v -0.09214 0.24315 0.00455
v -0.10147 0.41781 -0.01826
v -0.06386 0.24357 0.00451
v -0.06853 0.41831 -0.01831
v -0.10147 0.41781 -0.01826
v -0.09214 0.24315 0.00455
v -0.06386 0.24357 0.00451
v -0.06853 0.41831 -0.01831
v -0.06386 0.24685 0.03545
v -0.06853 0.42219 0.01826
v -0.06853 0.41831 -0.01831
v -0.06386 0.24357 0.00451
v -0.06386 0.24685 0.03545
v -0.06462 0.57721 0.00325
v -0.10138 0.57666 0.00331
v -0.10138 0.57279 -0.03325
v -0.06386 0.24685 0.03545
v -0.09214 0.24315 0.00455
v -0.09214 0.24643 0.03549
v -0.06462 0.57721 0.00325
v -0.10138 0.57279 -0.03325
v -0.06462 0.57334 -0.03331
v -0.06386 0.24685 0.03545
v -0.06386 0.24357 0.00451
v -0.09214 0.24315 0.00455
f 349 350 351
f 352 353 354
f 355 356 357
f 358 359 360
f 361 362 363
f 364 365 366
f 367 368 369
f 370 371 372
f 373 374 375
f 376 377 378
f 379 380 381
f 382 383 384
f 385 386 387
f 388 389 390
f 391 392 393
f 394 395 396
f 397 398 399
f 400 401 402
f 403 404 405
f 406 407 408
v 0.02453 0.39490 -0.07327
v 0.02500 0.45147 0.01773
v -0.01500 0.42347 -0.06227
v 0.02453 0.39490 -0.07327
v 0.06453 0.42290 0.00673
v 0.02500 0.45147 0.01773
v -0.01500 0.42347 -0.06227
v -0.01453 0.43157 0.04099
v -0.05453 0.40357 -0.03901
v -0.01500 0.42347 -0.06227
v 0.02500 0.45147 0.01773
v -0.01453 0.43157 0.04099
v -0.05453 0.40357 -0.03901
v -0.01453 0.38310 0.05327
v -0.05453 0.35510 -0.02673
v -0.05453 0.40357 -0.03901
v -0.01453 0.43157 0.04099
v -0.01453 0.38310 0.05327
v -0.05453 0.35510 -0.02673
v 0.02500 0.35453 0.04227
v -0.01500 0.32653 -0.03773
v -0.05453 0.35510 -0.02673
v -0.01453 0.38310 0.05327
v 0.02500 0.35453 0.04227
v -0.01500 0.32653 -0.03773
v 0.06453 0.37443 0.01901
v 0.02453 0.34643 -0.06099
v -0.01500 0.32653 -0.03773
v 0.02500 0.35453 0.04227
v 0.06453 0.37443 0.01901
v 0.02453 0.34643 -0.06099
v 0.06453 0.42290 0.00673
v 0.02453 0.39490 -0.07327
v 0.02453 0.34643 -0.06099
v 0.06453 0.37443 0.01901
v 0.06453 0.42290 0.00673
v 0.06453 0.42290 0.00673
v 0.05200 0.44787 0.07492
v 0.02500 0.45147 0.01773
v 0.06453 0.42290 0.00673
v 0.08125 0.42672 0.06678
v 0.05200 0.44787 0.07492
v 0.02500 0.45147 0.01773
v 0.02275 0.43314 0.09213
v -0.01453 0.43157 0.04099
v 0.02500 0.45147 0.01773
v 0.05200 0.44787 0.07492
v 0.02275 0.43314 0.09213
v -0.01453 0.43157 0.04099
v 0.02275 0.39728 0.10122
v -0.01453 0.38310 0.05327
v -0.01453 0.43157 0.04099
v 0.02275 0.43314 0.09213
v 0.02275 0.39728 0.10122
v -0.01453 0.38310 0.05327
v 0.05200 0.37613 0.09308
v 0.02500 0.35453 0.04227
v -0.01453 0.38310 0.05327
v 0.02275 0.39728 0.10122
v 0.05200 0.37613 0.09308
v 0.02500 0.35453 0.04227
v 0.08125 0.39086 0.07587
v 0.06453 0.37443 0.01901
v 0.02500 0.35453 0.04227
v 0.05200 0.37613 0.09308
v 0.08125 0.39086 0.07587
v 0.06453 0.37443 0.01901
v 0.08125 0.42672 0.06678
v 0.06453 0.42290 0.00673
v 0.06453 0.37443 0.01901
v 0.08125 0.39086 0.07587
v 0.08125 0.42672 0.06678
v 0.08125 0.42672 0.06678
v 0.05600 0.43145 0.09958
v 0.05200 0.44787 0.07492
v 0.08125 0.42672 0.06678
v 0.07023 0.42116 0.09562
v 0.05600 0.43145 0.09958
v 0.05200 0.44787 0.07492
v 0.04177 0.42429 0.10796
v 0.02275 0.43314 0.09213
v 0.05200 0.44787 0.07492
v 0.05600 0.43145 0.09958
v 0.04177 0.42429 0.10796
v 0.02275 0.43314 0.09213
v 0.04177 0.40684 0.11238
v 0.02275 0.39728 0.10122
v 0.02275 0.43314 0.09213
v 0.04177 0.42429 0.10796
v 0.04177 0.40684 0.11238
v 0.02275 0.39728 0.10122
v 0.05600 0.39655 0.10842
v 0.05200 0.37613 0.09308
v 0.02275 0.39728 0.10122
v 0.04177 0.40684 0.11238
v 0.05600 0.39655 0.10842
v 0.05200 0.37613 0.09308
v 0.07023 0.40371 0.10004
v 0.08125 0.39086 0.07587
v 0.05200 0.37613 0.09308
v 0.05600 0.39655 0.10842
v 0.07023 0.40371 0.10004
v 0.08125 0.39086 0.07587
v 0.07023 0.42116 0.09562
v 0.08125 0.42672 0.06678
v 0.08125 0.39086 0.07587
v 0.07023 0.40371 0.10004
v 0.07023 0.42116 0.09562
v 0.02453 0.39490 -0.07327
v -0.01500 0.42347 -0.06227
v -0.05453 0.40357 -0.03901
v 0.07023 0.42116 0.09562
v 0.04177 0.42429 0.10796
v 0.05600 0.43145 0.09958
v 0.02453 0.39490 -0.07327
v -0.05453 0.40357 -0.03901
v -0.05453 0.35510 -0.02673
v 0.07023 0.42116 0.09562
v 0.04177 0.40684 0.11238
v 0.04177 0.42429 0.10796
v 0.02453 0.39490 -0.07327
v -0.05453 0.35510 -0.02673
v -0.01500 0.32653 -0.03773
v 0.07023 0.42116 0.09562
v 0.05600 0.39655 0.10842
v 0.04177 0.40684 0.11238
v 0.02453 0.39490 -0.07327
v -0.01500 0.32653 -0.03773
v 0.02453 0.34643 -0.06099
v 0.07023 0.42116 0.09562
v 0.07023 0.40371 0.10004
v 0.05600 0.39655 0.10842
f 409 410 411
f 412 413 414
f 415 416 417
f 418 419 420
f 421 422 423
f 424 425 426
f 427 428 429
f 430 431 432
f 433 434 435
f 436 437 438
f 439 440 441
f 442 443 444
f 445 446 447
f 448 449 450
f 451 452 453
f 454 455 456
f 457 458 459
f 460 461 462
f 463 464 465
f 466 467 468
f 469 470 471
f 472 473 474
f 475 476 477
f 478 479 480
f 481 482 483
f 484 485 486
f 487 488 489
f 490 491 492
f 493 494 495
f 496 497 498
f 499 500 501
f 502 503 504
f 505 506 507
f 508 509 510
f 511 512 513
f 514 515 516
f 517 518 519
f 520 521 522
f 523 524 525
f 526 527 528
f 529 530 531
f 532 533 534
f 535 536 537
f 538 539 540
v 0.08270 0.39151 0.10344
v 0.04649 0.33584 0.08907
v 0.04580 0.38626 0.11422
v 0.08270 0.39151 0.10344
v 0.08451 0.34125 0.07797
v 0.04649 0.33584 0.08907
v 0.04580 0.38626 0.11422
v 0.02300 0.35000 0.06000
v 0.02300 0.40000 0.08600
v 0.04580 0.38626 0.11422
v 0.04649 0.33584 0.08907
v 0.02300 0.35000 0.06000
v 0.02300 0.40000 0.08600
v 0.04649 0.36416 0.03093
v 0.04580 0.41374 0.05778
v 0.02300 0.40000 0.08600
v 0.02300 0.35000 0.06000
v 0.04649 0.36416 0.03093
v 0.04580 0.41374 0.05778
v 0.08451 0.35875 0.04203
v 0.08270 0.40849 0.06856
v 0.04580 0.41374 0.05778
v 0.04649 0.36416 0.03093
v 0.08451 0.35875 0.04203
v 0.08270 0.40849 0.06856
v 0.08451 0.34125 0.07797
v 0.08270 0.39151 0.10344
v 0.08270 0.40849 0.06856
v 0.08451 0.35875 0.04203
v 0.08451 0.34125 0.07797
v 0.08451 0.34125 0.07797
v 0.05106 0.27834 0.04368
v 0.04649 0.33584 0.08907
v 0.08451 0.34125 0.07797
v 0.06894 0.28088 0.03846
v 0.05106 0.27834 0.04368
v 0.04649 0.33584 0.08907
v 0.04000 0.28500 0.03000
v 0.02300 0.35000 0.06000
v 0.04649 0.33584 0.08907
v 0.05106 0.27834 0.04368
v 0.04000 0.28500 0.03000
v 0.02300 0.35000 0.06000
v 0.05106 0.29166 0.01632
v 0.04649 0.36416 0.03093
v 0.02300 0.35000 0.06000
v 0.04000 0.28500 0.03000
v 0.05106 0.29166 0.01632
v 0.04649 0.36416 0.03093
v 0.06894 0.28912 0.02154
v 0.08451 0.35875 0.04203
v 0.04649 0.36416 0.03093
v 0.05106 0.29166 0.01632
v 0.06894 0.28912 0.02154
v 0.08451 0.35875 0.04203
v 0.06894 0.28088 0.03846
v 0.08451 0.34125 0.07797
v 0.08451 0.35875 0.04203
v 0.06894 0.28912 0.02154
v 0.06894 0.28088 0.03846
v 0.08270 0.39151 0.10344
v 0.04580 0.38626 0.11422
v 0.02300 0.40000 0.08600
v 0.06894 0.28088 0.03846
v 0.04000 0.28500 0.03000
v 0.05106 0.27834 0.04368
v 0.08270 0.39151 0.10344
v 0.02300 0.40000 0.08600
v 0.04580 0.41374 0.05778
v 0.06894 0.28088 0.03846
v 0.05106 0.29166 0.01632
v 0.04000 0.28500 0.03000
v 0.08270 0.39151 0.10344
v 0.04580 0.41374 0.05778
v 0.08270 0.40849 0.06856
v 0.06894 0.28088 0.03846
v 0.06894 0.28912 0.02154
v 0.05106 0.29166 0.01632
f 541 542 543
f 544 545 546
f 547 548 549
f 550 551 552
f 553 554 555
f 556 557 558
f 559 560 561
f 562 563 564
f 565 566 567
f 568 569 570
f 571 572 573
f 574 575 576
f 577 578 579
f 580 581 582
f 583 584 585
f 586 587 588
f 589 590 591
f 592 593 594
f 595 596 597
f 598 599 600
f 601 602 603
f 604 605 606
f 607 608 609
f 610 611 612
f 613 614 615
f 616 617 618
v 0.07218 0.29399 0.04440
v 0.04015 0.23934 0.06016
v 0.03982 0.29704 0.04318
v 0.07218 0.29399 0.04440
v 0.05985 0.23749 0.06091
v 0.04015 0.23934 0.06016
v 0.03982 0.29704 0.04318
v 0.04015 0.23251 0.04309
v 0.03982 0.28601 0.01560
v 0.03982 0.29704 0.04318
v 0.04015 0.23934 0.06016
v 0.04015 0.23251 0.04309
v 0.03982 0.28601 0.01560
v 0.05985 0.23066 0.04384
v 0.07218 0.28296 0.01682
v 0.03982 0.28601 0.01560
v 0.04015 0.23251 0.04309
v 0.05985 0.23066 0.04384
v 0.07218 0.28296 0.01682
v 0.05985 0.23749 0.06091
v 0.07218 0.29399 0.04440
v 0.07218 0.28296 0.01682
v 0.05985 0.23066 0.04384
v 0.05985 0.23749 0.06091
v 0.07218 0.29399 0.04440
v 0.03982 0.29704 0.04318
v 0.03982 0.28601 0.01560
v 0.05985 0.23749 0.06091
v 0.04015 0.23251 0.04309
v 0.04015 0.23934 0.06016
v 0.07218 0.29399 0.04440
v 0.03982 0.28601 0.01560
v 0.07218 0.28296 0.01682
v 0.05985 0.23749 0.06091
v 0.05985 0.23066 0.04384
v 0.04015 0.23251 0.04309
f 619 620 621
f 622 623 624
f 625 626 627
f 628 629 630
f 631 632 633
f 634 635 636
f 637 638 639
f 640 641 642
f 643 644 645
f 646 647 648
f 649 650 651
f 652 653 654
v 0.04319 0.34799 -0.01843
v -0.04800 0.38060 0.08062
v 0.01000 0.36653 -0.03627
v 0.04319 0.34799 -0.01843
v -0.01955 0.36470 0.09592
v -0.04800 0.38060 0.08062
v 0.01000 0.36653 -0.03627
v -0.07645 0.36089 0.07070
v -0.02319 0.34354 -0.04785
v 0.01000 0.36653 -0.03627
v -0.04800 0.38060 0.08062
v -0.07645 0.36089 0.07070
v -0.02319 0.34354 -0.04785
v -0.07645 0.32530 0.07608
v -0.02319 0.30201 -0.04157
v -0.02319 0.34354 -0.04785
v -0.07645 0.36089 0.07070
v -0.07645 0.32530 0.07608
v -0.02319 0.30201 -0.04157
v -0.04800 0.30940 0.09138
v 0.01000 0.28347 -0.02373
v -0.02319 0.30201 -0.04157
v -0.07645 0.32530 0.07608
v -0.04800 0.30940 0.09138
v 0.01000 0.28347 -0.02373
v -0.01955 0.32911 0.10130
v 0.04319 0.30646 -0.01215
v 0.01000 0.28347 -0.02373
v -0.04800 0.30940 0.09138
v -0.01955 0.32911 0.10130
v 0.04319 0.30646 -0.01215
v -0.01955 0.36470 0.09592
v 0.04319 0.34799 -0.01843
v 0.04319 0.30646 -0.01215
v -0.01955 0.32911 0.10130
v -0.01955 0.36470 0.09592
v -0.01955 0.36470 0.09592
v -0.05300 0.36380 0.10631
v -0.04800 0.38060 0.08062
v -0.01955 0.36470 0.09592
v -0.03877 0.35585 0.11396
v -0.05300 0.36380 0.10631
v -0.04800 0.38060 0.08062
v -0.06723 0.35395 0.10135
v -0.07645 0.36089 0.07070
v -0.04800 0.38060 0.08062
v -0.05300 0.36380 0.10631
v -0.06723 0.35395 0.10135
v -0.07645 0.36089 0.07070
v -0.06723 0.33615 0.10404
v -0.07645 0.32530 0.07608
v -0.07645 0.36089 0.07070
v -0.06723 0.35395 0.10135
v -0.06723 0.33615 0.10404
v -0.07645 0.32530 0.07608
v -0.05300 0.32820 0.11169
v -0.04800 0.30940 0.09138
v -0.07645 0.32530 0.07608
v -0.06723 0.33615 0.10404
v -0.05300 0.32820 0.11169
v -0.04800 0.30940 0.09138
v -0.03877 0.33805 0.11665
v -0.01955 0.32911 0.10130
v -0.04800 0.30940 0.09138
v -0.05300 0.32820 0.11169
v -0.03877 0.33805 0.11665
v -0.01955 0.32911 0.10130
v -0.03877 0.35585 0.11396
v -0.01955 0.36470 0.09592
v -0.01955 0.32911 0.10130
v -0.03877 0.33805 0.11665
v -0.03877 0.35585 0.11396
v 0.04319 0.34799 -0.01843
v 0.01000 0.36653 -0.03627
v -0.02319 0.34354 -0.04785
v -0.03877 0.35585 0.11396
v -0.06723 0.35395 0.10135
v -0.05300 0.36380 0.10631
v 0.04319 0.34799 -0.01843
v -0.02319 0.34354 -0.04785
v -0.02319 0.30201 -0.04157
v -0.03877 0.35585 0.11396
v -0.06723 0.33615 0.10404
v -0.06723 0.35395 0.10135
v 0.04319 0.34799 -0.01843
v -0.02319 0.30201 -0.04157
v 0.01000 0.28347 -0.02373
v -0.03877 0.35585 0.11396
v -0.05300 0.32820 0.11169
v -0.06723 0.33615 0.10404
v 0.04319 0.34799 -0.01843
v 0.01000 0.28347 -0.02373
v 0.04319 0.30646 -0.01215
v -0.03877 0.35585 0.11396
v -0.03877 0.33805 0.11665
v -0.05300 0.32820 0.11169
f 655 656 657
f 658 659 660
f 661 662 663
f 664 665 666
f 667 668 669
f 670 671 672
f 673 674 675
f 676 677 678
f 679 680 681
f 682 683 684
f 685 686 687
f 688 689 690
f 691 692 693
f 694 695 696
f 697 698 699
f 700 701 702
f 703 704 705
f 706 707 708
f 709 710 711
f 712 713 714
f 715 716 717
f 718 719 720
f 721 722 723
f 724 725 726
f 727 728 729
f 730 731 732
f 733 734 735
f 736 737 738
f 739 740 741
f 742 743 744
f 745 746 747
f 748 749 750
v -0.02151 0.33625 0.10797
v -0.04196 0.26093 0.10413
v -0.05535 0.32648 0.11730
v -0.02151 0.33625 0.10797
v -0.00593 0.27133 0.09419
v -0.04196 0.26093 0.10413
v -0.05535 0.32648 0.11730
v -0.06422 0.26306 0.07243
v -0.07627 0.32848 0.08753
v -0.05535 0.32648 0.11730
v -0.04196 0.26093 0.10413
v -0.06422 0.26306 0.07243
v -0.07627 0.32848 0.08753
v -0.04196 0.27478 0.04290
v -0.05535 0.33949 0.05979
v -0.07627 0.32848 0.08753
v -0.06422 0.26306 0.07243
v -0.04196 0.27478 0.04290
v -0.05535 0.33949 0.05979
v -0.00593 0.27989 0.05635
v -0.02151 0.34429 0.07242
v -0.05535 0.33949 0.05979
v -0.04196 0.27478 0.04290
v -0.00593 0.27989 0.05635
v -0.02151 0.34429 0.07242
v -0.00593 0.27133 0.09419
v -0.02151 0.33625 0.10797
v -0.02151 0.34429 0.07242
v -0.00593 0.27989 0.05635
v -0.00593 0.27133 0.09419
v -0.00593 0.27133 0.09419
v -0.00722 0.14115 0.05878
v -0.04196 0.26093 0.10413
v -0.00593 0.27133 0.09419
v 0.00806 0.14556 0.05456
v -0.00722 0.14115 0.05878
v -0.04196 0.26093 0.10413
v -0.01667 0.14206 0.04533
v -0.06422 0.26306 0.07243
v -0.04196 0.26093 0.10413
v -0.00722 0.14115 0.05878
v -0.01667 0.14206 0.04533
v -0.06422 0.26306 0.07243
v -0.00722 0.14703 0.03281
v -0.04196 0.27478 0.04290
v -0.06422 0.26306 0.07243
v -0.01667 0.14206 0.04533
v -0.00722 0.14703 0.03281
v -0.04196 0.27478 0.04290
v 0.00806 0.14920 0.03851
v -0.00593 0.27989 0.05635
v -0.04196 0.27478 0.04290
v -0.00722 0.14703 0.03281
v 0.00806 0.14920 0.03851
v -0.00593 0.27989 0.05635
v 0.00806 0.14556 0.05456
v -0.00593 0.27133 0.09419
v -0.00593 0.27989 0.05635
v 0.00806 0.14920 0.03851
v 0.00806 0.14556 0.05456
v -0.02151 0.33625 0.10797
v -0.05535 0.32648 0.11730
v -0.07627 0.32848 0.08753
v 0.00806 0.14556 0.05456
v -0.01667 0.14206 0.04533
v -0.00722 0.14115 0.05878
v -0.02151 0.33625 0.10797
v -0.07627 0.32848 0.08753
v -0.05535 0.33949 0.05979
v 0.00806 0.14556 0.05456
v -0.00722 0.14703 0.03281
v -0.01667 0.14206 0.04533
v -0.02151 0.33625 0.10797
v -0.05535 0.33949 0.05979
v -0.02151 0.34429 0.07242
v 0.00806 0.14556 0.05456
v 0.00806 0.14920 0.03851
v -0.00722 0.14703 0.03281
f 751 752 753
f 754 755 756
f 757 758 759
f 760 761 762
f 763 764 765
f 766 767 768
f 769 770 771
f 772 773 774
f 775 776 777
f 778 779 780
f 781 782 783
f 784 785 786
f 787 788 789
f 790 791 792
f 793 794 795
f 796 797 798
f 799 800 801
f 802 803 804
f 805 806 807
f 808 809 810
f 811 812 813
f 814 815 816
f 817 818 819
f 820 821 822
f 823 824 825
f 826 827 828
v 0.00973 0.14960 0.05863
v -0.01149 0.07007 0.06442
v -0.01573 0.14960 0.05863
v 0.00973 0.14960 0.05863
v 0.00549 0.07007 0.06442
v -0.01149 0.07007 0.06442
v -0.01573 0.14960 0.05863
v -0.01149 0.06793 0.04758
v -0.01573 0.14640 0.03337
v -0.01573 0.14960 0.05863
v -0.01149 0.07007 0.06442
v -0.01149 0.06793 0.04758
v -0.01573 0.14640 0.03337
v 0.00549 0.06793 0.04758
v 0.00973 0.14640 0.03337
v -0.01573 0.14640 0.03337
v -0.01149 0.06793 0.04758
v 0.00549 0.06793 0.04758
v 0.00973 0.14640 0.03337
v 0.00549 0.07007 0.06442
v 0.00973 0.14960 0.05863
v 0.00973 0.14640 0.03337
v 0.00549 0.06793 0.04758
v 0.00549 0.07007 0.06442
v 0.00973 0.14960 0.05863
v -0.01573 0.14960 0.05863
v -0.01573 0.14640 0.03337
v 0.00549 0.07007 0.06442
v -0.01149 0.06793 0.04758
v -0.01149 0.07007 0.06442
v 0.00973 0.14960 0.05863
v -0.01573 0.14640 0.03337
v 0.00973 0.14640 0.03337
v 0.00549 0.07007 0.06442
v 0.00549 0.06793 0.04758
v -0.01149 0.06793 0.04758
f 829 830 831
f 832 833 834
f 835 836 837
f 838 839 840
f 841 842 843
f 844 845 846
f 847 848 849
f 850 851 852
f 853 854 855
f 856 857 858
f 859 860 861
f 862 863 864
v 0.01326 0.56185 -0.00152
v 0.00110 0.61450 -0.01143
v 0.00200 0.56399 -0.00819
v 0.01326 0.56185 -0.00152
v 0.02794 0.60929 0.00476
v 0.00110 0.61450 -0.01143
v 0.00200 0.56399 -0.00819
v -0.02574 0.60831 0.00441
v -0.00926 0.56144 -0.00167
v 0.00200 0.56399 -0.00819
v 0.00110 0.61450 -0.01143
v -0.02574 0.60831 0.00441
v -0.00926 0.56144 -0.00167
v -0.02574 0.59690 0.03644
v -0.00926 0.55674 0.01152
v -0.00926 0.56144 -0.00167
v -0.02574 0.60831 0.00441
v -0.02574 0.59690 0.03644
v -0.00926 0.55674 0.01152
v 0.00110 0.59169 0.05263
v 0.00200 0.55460 0.01819
v -0.00926 0.55674 0.01152
v -0.02574 0.59690 0.03644
v 0.00110 0.59169 0.05263
v 0.00200 0.55460 0.01819
v 0.02794 0.59788 0.03679
v 0.01326 0.55715 0.01167
v 0.00200 0.55460 0.01819
v 0.00110 0.59169 0.05263
v 0.02794 0.59788 0.03679
v 0.01326 0.55715 0.01167
v 0.02794 0.60929 0.00476
v 0.01326 0.56185 -0.00152
v 0.01326 0.55715 0.01167
v 0.02794 0.59788 0.03679
v 0.02794 0.60929 0.00476
v 0.02794 0.60929 0.00476
v 0.00005 0.66963 -0.00453
v 0.00110 0.61450 -0.01143
v 0.02794 0.60929 0.00476
v 0.03555 0.66256 0.01736
v 0.00005 0.66963 -0.00453
v 0.00110 0.61450 -0.01143
v -0.03545 0.66127 0.01690
v -0.02574 0.60831 0.00441
v 0.00110 0.61450 -0.01143
v 0.00005 0.66963 -0.00453
v -0.03545 0.66127 0.01690
v -0.02574 0.60831 0.00441
v -0.03545 0.64583 0.06024
v -0.02574 0.59690 0.03644
v -0.02574 0.60831 0.00441
v -0.03545 0.66127 0.01690
v -0.03545 0.64583 0.06024
v -0.02574 0.59690 0.03644
v 0.00005 0.63876 0.08213
v 0.00110 0.59169 0.05263
v -0.02574 0.59690 0.03644
v -0.03545 0.64583 0.06024
v 0.00005 0.63876 0.08213
v 0.00110 0.59169 0.05263
v 0.03555 0.64713 0.06070
v 0.02794 0.59788 0.03679
v 0.00110 0.59169 0.05263
v 0.00005 0.63876 0.08213
v 0.03555 0.64713 0.06070
v 0.02794 0.59788 0.03679
v 0.03555 0.66256 0.01736
v 0.02794 0.60929 0.00476
v 0.02794 0.59788 0.03679
v 0.03555 0.64713 0.06070
v 0.03555 0.66256 0.01736
v 0.03555 0.66256 0.01736
v -0.00070 0.70311 0.01694
v 0.00005 0.66963 -0.00453
v 0.03555 0.66256 0.01736
v 0.02787 0.69742 0.03456
v -0.00070 0.70311 0.01694
v 0.00005 0.66963 -0.00453
v -0.02927 0.69638 0.03419
v -0.03545 0.66127 0.01690
v 0.00005 0.66963 -0.00453
v -0.00070 0.70311 0.01694
v -0.02927 0.69638 0.03419
v -0.03545 0.66127 0.01690
v -0.02927 0.68397 0.06904
v -0.03545 0.64583 0.06024
v -0.03545 0.66127 0.01690
v -0.02927 0.69638 0.03419
v -0.02927 0.68397 0.06904
v -0.03545 0.64583 0.06024
v -0.00070 0.67828 0.08666
v 0.00005 0.63876 0.08213
v -0.03545 0.64583 0.06024
v -0.02927 0.68397 0.06904
v -0.00070 0.67828 0.08666
v 0.00005 0.63876 0.08213
v 0.02787 0.68501 0.06941
v 0.03555 0.64713 0.06070
v 0.00005 0.63876 0.08213
v -0.00070 0.67828 0.08666
v 0.02787 0.68501 0.06941
v 0.03555 0.64713 0.06070
v 0.02787 0.69742 0.03456
v 0.03555 0.66256 0.01736
v 0.03555 0.64713 0.06070
v 0.02787 0.68501 0.06941
v 0.02787 0.69742 0.03456
v 0.02787 0.69742 0.03456
v -0.00100 0.71100 0.04099
v -0.00070 0.70311 0.01694
v 0.02787 0.69742 0.03456
v 0.01199 0.70838 0.04908
v -0.00100 0.71100 0.04099
v -0.00070 0.70311 0.01694
v -0.01399 0.70791 0.04891
v -0.02927 0.69638 0.03419
v -0.00070 0.70311 0.01694
v -0.00100 0.71100 0.04099
v -0.01399 0.70791 0.04891
v -0.02927 0.69638 0.03419
v -0.01399 0.70221 0.06492
v -0.02927 0.68397 0.06904
v -0.02927 0.69638 0.03419
v -0.01399 0.70791 0.04891
v -0.01399 0.70221 0.06492
v -0.02927 0.68397 0.06904
v -0.00100 0.69959 0.07301
v -0.00070 0.67828 0.08666
v -0.02927 0.68397 0.06904
v -0.01399 0.70221 0.06492
v -0.00100 0.69959 0.07301
v -0.00070 0.67828 0.08666
v 0.01199 0.70268 0.06509
v 0.02787 0.68501 0.06941
v -0.00070 0.67828 0.08666
v -0.00100 0.69959 0.07301
v 0.01199 0.70268 0.06509
v 0.02787 0.68501 0.06941
v 0.01199 0.70838 0.04908
v 0.02787 0.69742 0.03456
v 0.02787 0.68501 0.06941
v 0.01199 0.70268 0.06509
v 0.01199 0.70838 0.04908
v 0.01326 0.56185 -0.00152
v 0.00200 0.56399 -0.00819
v -0.00926 0.56144 -0.00167
v 0.01199 0.70838 0.04908
v -0.01399 0.70791 0.04891
v -0.00100 0.71100 0.04099
v 0.01326 0.56185 -0.00152
v -0.00926 0.56144 -0.00167
v -0.00926 0.55674 0.01152
v 0.01199 0.70838 0.04908
v -0.01399 0.70221 0.06492
v -0.01399 0.70791 0.04891
v 0.01326 0.56185 -0.00152
v -0.00926 0.55674 0.01152
v 0.00200 0.55460 0.01819
v 0.01199 0.70838 0.04908
v -0.00100 0.69959 0.07301
v -0.01399 0.70221 0.06492
v 0.01326 0.56185 -0.00152
v 0.00200 0.55460 0.01819
v 0.01326 0.55715 0.01167
v 0.01199 0.70838 0.04908
v 0.01199 0.70268 0.06509
v -0.00100 0.69959 0.07301
f 865 866 867
f 868 869 870
f 871 872 873
f 874 875 876
f 877 878 879
f 880 881 882
f 883 884 885
f 886 887 888
f 889 890 891
f 892 893 894
f 895 896 897
f 898 899 900
f 901 902 903
f 904 905 906
f 907 908 909
f 910 911 912
f 913 914 915
f 916 917 918
f 919 920 921
f 922 923 924
f 925 926 927
f 928 929 930
f 931 932 933
f 934 935 936
f 937 938 939
f 940 941 942
f 943 944 945
f 946 947 948
f 949 950 951
f 952 953 954
f 955 956 957
f 958 959 960
f 961 962 963
f 964 965 966
f 967 968 969
f 970 971 972
f 973 974 975
f 976 977 978
f 979 980 981
f 982 983 984
f 985 986 987
f 988 989 990
f 991 992 993
f 994 995 996
f 997 998 999
f 1000 1001 1002
f 1003 1004 1005
f 1006 1007 1008
f 1009 1010 1011
f 1012 1013 1014
f 1015 1016 1017
f 1018 1019 1020
f 1021 1022 1023
f 1024 1025 1026
f 1027 1028 1029
f 1030 1031 1032
